G04 #@! TF.GenerationSoftware,KiCad,Pcbnew,(5.0.2)-1*
G04 #@! TF.CreationDate,2019-05-29T15:32:01+01:00*
G04 #@! TF.ProjectId,ultrasound_adapter,756c7472-6173-46f7-956e-645f61646170,rev?*
G04 #@! TF.SameCoordinates,Original*
G04 #@! TF.FileFunction,Legend,Bot*
G04 #@! TF.FilePolarity,Positive*
%FSLAX46Y46*%
G04 Gerber Fmt 4.6, Leading zero omitted, Abs format (unit mm)*
G04 Created by KiCad (PCBNEW (5.0.2)-1) date 29/05/2019 15:32:01*
%MOMM*%
%LPD*%
G01*
G04 APERTURE LIST*
%ADD10C,0.300000*%
%ADD11C,0.120000*%
%ADD12C,0.150000*%
G04 APERTURE END LIST*
D10*
X130992857Y-56850000D02*
X131135714Y-56778571D01*
X131350000Y-56778571D01*
X131564285Y-56850000D01*
X131707142Y-56992857D01*
X131778571Y-57135714D01*
X131850000Y-57421428D01*
X131850000Y-57635714D01*
X131778571Y-57921428D01*
X131707142Y-58064285D01*
X131564285Y-58207142D01*
X131350000Y-58278571D01*
X131207142Y-58278571D01*
X130992857Y-58207142D01*
X130921428Y-58135714D01*
X130921428Y-57635714D01*
X131207142Y-57635714D01*
X130278571Y-58278571D02*
X130278571Y-56778571D01*
X129421428Y-58278571D01*
X129421428Y-56778571D01*
X128707142Y-58278571D02*
X128707142Y-56778571D01*
X128350000Y-56778571D01*
X128135714Y-56850000D01*
X127992857Y-56992857D01*
X127921428Y-57135714D01*
X127850000Y-57421428D01*
X127850000Y-57635714D01*
X127921428Y-57921428D01*
X127992857Y-58064285D01*
X128135714Y-58207142D01*
X128350000Y-58278571D01*
X128707142Y-58278571D01*
X131971428Y-54817857D02*
X131471428Y-54817857D01*
X131257142Y-55603571D02*
X131971428Y-55603571D01*
X131971428Y-54103571D01*
X131257142Y-54103571D01*
X129971428Y-55532142D02*
X130114285Y-55603571D01*
X130400000Y-55603571D01*
X130542857Y-55532142D01*
X130614285Y-55460714D01*
X130685714Y-55317857D01*
X130685714Y-54889285D01*
X130614285Y-54746428D01*
X130542857Y-54675000D01*
X130400000Y-54603571D01*
X130114285Y-54603571D01*
X129971428Y-54675000D01*
X129328571Y-55603571D02*
X129328571Y-54103571D01*
X128685714Y-55603571D02*
X128685714Y-54817857D01*
X128757142Y-54675000D01*
X128900000Y-54603571D01*
X129114285Y-54603571D01*
X129257142Y-54675000D01*
X129328571Y-54746428D01*
X127757142Y-55603571D02*
X127900000Y-55532142D01*
X127971428Y-55460714D01*
X128042857Y-55317857D01*
X128042857Y-54889285D01*
X127971428Y-54746428D01*
X127900000Y-54675000D01*
X127757142Y-54603571D01*
X127542857Y-54603571D01*
X127400000Y-54675000D01*
X127328571Y-54746428D01*
X127257142Y-54889285D01*
X127257142Y-55317857D01*
X127328571Y-55460714D01*
X127400000Y-55532142D01*
X127542857Y-55603571D01*
X127757142Y-55603571D01*
X132003571Y-51528571D02*
X131146428Y-51528571D01*
X131575000Y-53028571D02*
X131575000Y-51528571D01*
X130646428Y-53028571D02*
X130646428Y-52028571D01*
X130646428Y-52314285D02*
X130575000Y-52171428D01*
X130503571Y-52100000D01*
X130360714Y-52028571D01*
X130217857Y-52028571D01*
X129717857Y-53028571D02*
X129717857Y-52028571D01*
X129717857Y-51528571D02*
X129789285Y-51600000D01*
X129717857Y-51671428D01*
X129646428Y-51600000D01*
X129717857Y-51528571D01*
X129717857Y-51671428D01*
X128360714Y-52028571D02*
X128360714Y-53242857D01*
X128432142Y-53385714D01*
X128503571Y-53457142D01*
X128646428Y-53528571D01*
X128860714Y-53528571D01*
X129003571Y-53457142D01*
X128360714Y-52957142D02*
X128503571Y-53028571D01*
X128789285Y-53028571D01*
X128932142Y-52957142D01*
X129003571Y-52885714D01*
X129075000Y-52742857D01*
X129075000Y-52314285D01*
X129003571Y-52171428D01*
X128932142Y-52100000D01*
X128789285Y-52028571D01*
X128503571Y-52028571D01*
X128360714Y-52100000D01*
X132150000Y-49028571D02*
X131650000Y-50528571D01*
X131150000Y-49028571D01*
X129792857Y-50385714D02*
X129864285Y-50457142D01*
X130078571Y-50528571D01*
X130221428Y-50528571D01*
X130435714Y-50457142D01*
X130578571Y-50314285D01*
X130650000Y-50171428D01*
X130721428Y-49885714D01*
X130721428Y-49671428D01*
X130650000Y-49385714D01*
X130578571Y-49242857D01*
X130435714Y-49100000D01*
X130221428Y-49028571D01*
X130078571Y-49028571D01*
X129864285Y-49100000D01*
X129792857Y-49171428D01*
X128292857Y-50385714D02*
X128364285Y-50457142D01*
X128578571Y-50528571D01*
X128721428Y-50528571D01*
X128935714Y-50457142D01*
X129078571Y-50314285D01*
X129150000Y-50171428D01*
X129221428Y-49885714D01*
X129221428Y-49671428D01*
X129150000Y-49385714D01*
X129078571Y-49242857D01*
X128935714Y-49100000D01*
X128721428Y-49028571D01*
X128578571Y-49028571D01*
X128364285Y-49100000D01*
X128292857Y-49171428D01*
D11*
G04 #@! TO.C,J1*
X126355000Y-48495000D02*
X125025000Y-48495000D01*
X126355000Y-49825000D02*
X126355000Y-48495000D01*
X123695000Y-51095000D02*
X126355000Y-51095000D01*
X123695000Y-58775000D02*
X123695000Y-51095000D01*
X126355000Y-58775000D02*
X123695000Y-58775000D01*
X126355000Y-51095000D02*
X126355000Y-58775000D01*
D12*
G04 #@! TO.C,J2*
X141200000Y-63475000D02*
X133200000Y-63475000D01*
X133200000Y-63475000D02*
X133200000Y-43475000D01*
X133200000Y-43475000D02*
X141200000Y-43475000D01*
X141200000Y-43475000D02*
X141200000Y-63475000D01*
G04 #@! TO.C,J1*
X125358333Y-46947380D02*
X125358333Y-47661666D01*
X125405952Y-47804523D01*
X125501190Y-47899761D01*
X125644047Y-47947380D01*
X125739285Y-47947380D01*
X124358333Y-47947380D02*
X124929761Y-47947380D01*
X124644047Y-47947380D02*
X124644047Y-46947380D01*
X124739285Y-47090238D01*
X124834523Y-47185476D01*
X124929761Y-47233095D01*
G04 #@! TD*
M02*
