G04 #@! TF.GenerationSoftware,KiCad,Pcbnew,(5.0.2)-1*
G04 #@! TF.CreationDate,2019-06-08T19:55:36+01:00*
G04 #@! TF.ProjectId,ultrasound_adapter,756c7472-6173-46f7-956e-645f61646170,rev?*
G04 #@! TF.SameCoordinates,Original*
G04 #@! TF.FileFunction,Soldermask,Bot*
G04 #@! TF.FilePolarity,Negative*
%FSLAX46Y46*%
G04 Gerber Fmt 4.6, Leading zero omitted, Abs format (unit mm)*
G04 Created by KiCad (PCBNEW (5.0.2)-1) date 08/06/2019 19:55:36*
%MOMM*%
%LPD*%
G01*
G04 APERTURE LIST*
%ADD10C,0.100000*%
G04 APERTURE END LIST*
D10*
G36*
X130617083Y-59083975D02*
X130617085Y-59083976D01*
X130617086Y-59083976D01*
X130972145Y-59231046D01*
X130972146Y-59231047D01*
X131291693Y-59444561D01*
X131563439Y-59716307D01*
X131563441Y-59716310D01*
X131776954Y-60035855D01*
X131867532Y-60254530D01*
X131924025Y-60390917D01*
X131999000Y-60767842D01*
X131999000Y-61152158D01*
X131957638Y-61360100D01*
X131924024Y-61529086D01*
X131776954Y-61884145D01*
X131776953Y-61884146D01*
X131563439Y-62203693D01*
X131291693Y-62475439D01*
X131291690Y-62475441D01*
X130972145Y-62688954D01*
X130617086Y-62836024D01*
X130617085Y-62836024D01*
X130617083Y-62836025D01*
X130240158Y-62911000D01*
X129855842Y-62911000D01*
X129478917Y-62836025D01*
X129478915Y-62836024D01*
X129478914Y-62836024D01*
X129123855Y-62688954D01*
X128804310Y-62475441D01*
X128804307Y-62475439D01*
X128532561Y-62203693D01*
X128319047Y-61884146D01*
X128319046Y-61884145D01*
X128171976Y-61529086D01*
X128138363Y-61360100D01*
X128097000Y-61152158D01*
X128097000Y-60767842D01*
X128171975Y-60390917D01*
X128228468Y-60254530D01*
X128319046Y-60035855D01*
X128532559Y-59716310D01*
X128532561Y-59716307D01*
X128804307Y-59444561D01*
X129123854Y-59231047D01*
X129123855Y-59231046D01*
X129478914Y-59083976D01*
X129478915Y-59083976D01*
X129478917Y-59083975D01*
X129855842Y-59009000D01*
X130240158Y-59009000D01*
X130617083Y-59083975D01*
X130617083Y-59083975D01*
G37*
G36*
X137437142Y-60193242D02*
X137585102Y-60254530D01*
X137718258Y-60343502D01*
X137831498Y-60456742D01*
X137920470Y-60589898D01*
X137981758Y-60737858D01*
X138013000Y-60894925D01*
X138013000Y-61055075D01*
X137981758Y-61212142D01*
X137920470Y-61360102D01*
X137831498Y-61493258D01*
X137718258Y-61606498D01*
X137585102Y-61695470D01*
X137437142Y-61756758D01*
X137280075Y-61788000D01*
X137119925Y-61788000D01*
X136962858Y-61756758D01*
X136814898Y-61695470D01*
X136681742Y-61606498D01*
X136568502Y-61493258D01*
X136479530Y-61360102D01*
X136418242Y-61212142D01*
X136387000Y-61055075D01*
X136387000Y-60894925D01*
X136418242Y-60737858D01*
X136479530Y-60589898D01*
X136568502Y-60456742D01*
X136681742Y-60343502D01*
X136814898Y-60254530D01*
X136962858Y-60193242D01*
X137119925Y-60162000D01*
X137280075Y-60162000D01*
X137437142Y-60193242D01*
X137437142Y-60193242D01*
G37*
G36*
X125951000Y-58346000D02*
X124149000Y-58346000D01*
X124149000Y-56544000D01*
X125951000Y-56544000D01*
X125951000Y-58346000D01*
X125951000Y-58346000D01*
G37*
G36*
X137437142Y-55193242D02*
X137551583Y-55240646D01*
X137577708Y-55251467D01*
X137585102Y-55254530D01*
X137718258Y-55343502D01*
X137831498Y-55456742D01*
X137920470Y-55589898D01*
X137981758Y-55737858D01*
X138013000Y-55894925D01*
X138013000Y-56055075D01*
X137981758Y-56212142D01*
X137920470Y-56360102D01*
X137831498Y-56493258D01*
X137718258Y-56606498D01*
X137585102Y-56695470D01*
X137437142Y-56756758D01*
X137280075Y-56788000D01*
X137119925Y-56788000D01*
X136962858Y-56756758D01*
X136814898Y-56695470D01*
X136681742Y-56606498D01*
X136568502Y-56493258D01*
X136479530Y-56360102D01*
X136418242Y-56212142D01*
X136387000Y-56055075D01*
X136387000Y-55894925D01*
X136418242Y-55737858D01*
X136479530Y-55589898D01*
X136568502Y-55456742D01*
X136681742Y-55343502D01*
X136814898Y-55254530D01*
X136822293Y-55251467D01*
X136848417Y-55240646D01*
X136962858Y-55193242D01*
X137119925Y-55162000D01*
X137280075Y-55162000D01*
X137437142Y-55193242D01*
X137437142Y-55193242D01*
G37*
G36*
X125160443Y-54010519D02*
X125226627Y-54017037D01*
X125339853Y-54051384D01*
X125396467Y-54068557D01*
X125535087Y-54142652D01*
X125552991Y-54152222D01*
X125588729Y-54181552D01*
X125690186Y-54264814D01*
X125773448Y-54366271D01*
X125802778Y-54402009D01*
X125802779Y-54402011D01*
X125886443Y-54558533D01*
X125886443Y-54558534D01*
X125937963Y-54728373D01*
X125955359Y-54905000D01*
X125937963Y-55081627D01*
X125913582Y-55162000D01*
X125886443Y-55251467D01*
X125812348Y-55390087D01*
X125802778Y-55407991D01*
X125773448Y-55443729D01*
X125690186Y-55545186D01*
X125588729Y-55628448D01*
X125552991Y-55657778D01*
X125552989Y-55657779D01*
X125396467Y-55741443D01*
X125339853Y-55758616D01*
X125226627Y-55792963D01*
X125160442Y-55799482D01*
X125094260Y-55806000D01*
X125005740Y-55806000D01*
X124939558Y-55799482D01*
X124873373Y-55792963D01*
X124760147Y-55758616D01*
X124703533Y-55741443D01*
X124547011Y-55657779D01*
X124547009Y-55657778D01*
X124511271Y-55628448D01*
X124409814Y-55545186D01*
X124326552Y-55443729D01*
X124297222Y-55407991D01*
X124287652Y-55390087D01*
X124213557Y-55251467D01*
X124186418Y-55162000D01*
X124162037Y-55081627D01*
X124144641Y-54905000D01*
X124162037Y-54728373D01*
X124213557Y-54558534D01*
X124213557Y-54558533D01*
X124297221Y-54402011D01*
X124297222Y-54402009D01*
X124326552Y-54366271D01*
X124409814Y-54264814D01*
X124511271Y-54181552D01*
X124547009Y-54152222D01*
X124564913Y-54142652D01*
X124703533Y-54068557D01*
X124760147Y-54051384D01*
X124873373Y-54017037D01*
X124939557Y-54010519D01*
X125005740Y-54004000D01*
X125094260Y-54004000D01*
X125160443Y-54010519D01*
X125160443Y-54010519D01*
G37*
G36*
X135217000Y-55715000D02*
X133515000Y-55715000D01*
X133515000Y-54013000D01*
X135217000Y-54013000D01*
X135217000Y-55715000D01*
X135217000Y-55715000D01*
G37*
G36*
X125160443Y-51470519D02*
X125226627Y-51477037D01*
X125339853Y-51511384D01*
X125396467Y-51528557D01*
X125428544Y-51545703D01*
X125552991Y-51612222D01*
X125588729Y-51641552D01*
X125690186Y-51724814D01*
X125773448Y-51826271D01*
X125802778Y-51862009D01*
X125802779Y-51862011D01*
X125886443Y-52018533D01*
X125886443Y-52018534D01*
X125937963Y-52188373D01*
X125955359Y-52365000D01*
X125937963Y-52541627D01*
X125916546Y-52612228D01*
X125886443Y-52711467D01*
X125856706Y-52767100D01*
X125802778Y-52867991D01*
X125773448Y-52903729D01*
X125690186Y-53005186D01*
X125588729Y-53088448D01*
X125552991Y-53117778D01*
X125552301Y-53118147D01*
X125396467Y-53201443D01*
X125339853Y-53218616D01*
X125226627Y-53252963D01*
X125160443Y-53259481D01*
X125094260Y-53266000D01*
X125005740Y-53266000D01*
X124939557Y-53259481D01*
X124873373Y-53252963D01*
X124760147Y-53218616D01*
X124703533Y-53201443D01*
X124547699Y-53118147D01*
X124547009Y-53117778D01*
X124511271Y-53088448D01*
X124409814Y-53005186D01*
X124326552Y-52903729D01*
X124297222Y-52867991D01*
X124243294Y-52767100D01*
X124213557Y-52711467D01*
X124183454Y-52612228D01*
X124162037Y-52541627D01*
X124144641Y-52365000D01*
X124162037Y-52188373D01*
X124213557Y-52018534D01*
X124213557Y-52018533D01*
X124297221Y-51862011D01*
X124297222Y-51862009D01*
X124326552Y-51826271D01*
X124409814Y-51724814D01*
X124511271Y-51641552D01*
X124547009Y-51612222D01*
X124671456Y-51545703D01*
X124703533Y-51528557D01*
X124760147Y-51511384D01*
X124873373Y-51477037D01*
X124939558Y-51470518D01*
X125005740Y-51464000D01*
X125094260Y-51464000D01*
X125160443Y-51470519D01*
X125160443Y-51470519D01*
G37*
G36*
X134614228Y-51545703D02*
X134769100Y-51609853D01*
X134908481Y-51702985D01*
X135027015Y-51821519D01*
X135120147Y-51960900D01*
X135184297Y-52115772D01*
X135217000Y-52280184D01*
X135217000Y-52447816D01*
X135184297Y-52612228D01*
X135120147Y-52767100D01*
X135027015Y-52906481D01*
X134908481Y-53025015D01*
X134769100Y-53118147D01*
X134614228Y-53182297D01*
X134449816Y-53215000D01*
X134282184Y-53215000D01*
X134117772Y-53182297D01*
X133962900Y-53118147D01*
X133823519Y-53025015D01*
X133704985Y-52906481D01*
X133611853Y-52767100D01*
X133547703Y-52612228D01*
X133515000Y-52447816D01*
X133515000Y-52280184D01*
X133547703Y-52115772D01*
X133611853Y-51960900D01*
X133704985Y-51821519D01*
X133823519Y-51702985D01*
X133962900Y-51609853D01*
X134117772Y-51545703D01*
X134282184Y-51513000D01*
X134449816Y-51513000D01*
X134614228Y-51545703D01*
X134614228Y-51545703D01*
G37*
G36*
X137437142Y-50193242D02*
X137585102Y-50254530D01*
X137652130Y-50299317D01*
X137718257Y-50343501D01*
X137831499Y-50456743D01*
X137837140Y-50465186D01*
X137920470Y-50589898D01*
X137981758Y-50737858D01*
X138013000Y-50894925D01*
X138013000Y-51055075D01*
X137981758Y-51212142D01*
X137934354Y-51326583D01*
X137920471Y-51360100D01*
X137831499Y-51493257D01*
X137718257Y-51606499D01*
X137652130Y-51650683D01*
X137585102Y-51695470D01*
X137585101Y-51695471D01*
X137585100Y-51695471D01*
X137566957Y-51702986D01*
X137437142Y-51756758D01*
X137280075Y-51788000D01*
X137119925Y-51788000D01*
X136962858Y-51756758D01*
X136833043Y-51702986D01*
X136814900Y-51695471D01*
X136814899Y-51695471D01*
X136814898Y-51695470D01*
X136747870Y-51650683D01*
X136681743Y-51606499D01*
X136568501Y-51493257D01*
X136479529Y-51360100D01*
X136465646Y-51326583D01*
X136418242Y-51212142D01*
X136387000Y-51055075D01*
X136387000Y-50894925D01*
X136418242Y-50737858D01*
X136479530Y-50589898D01*
X136562860Y-50465186D01*
X136568501Y-50456743D01*
X136681743Y-50343501D01*
X136747870Y-50299317D01*
X136814898Y-50254530D01*
X136962858Y-50193242D01*
X137119925Y-50162000D01*
X137280075Y-50162000D01*
X137437142Y-50193242D01*
X137437142Y-50193242D01*
G37*
G36*
X125160443Y-48930519D02*
X125226627Y-48937037D01*
X125339853Y-48971384D01*
X125396467Y-48988557D01*
X125535087Y-49062652D01*
X125552991Y-49072222D01*
X125588729Y-49101552D01*
X125690186Y-49184814D01*
X125773448Y-49286271D01*
X125802778Y-49322009D01*
X125802779Y-49322011D01*
X125886443Y-49478533D01*
X125886443Y-49478534D01*
X125937963Y-49648373D01*
X125955359Y-49825000D01*
X125937963Y-50001627D01*
X125903616Y-50114853D01*
X125886443Y-50171467D01*
X125874803Y-50193243D01*
X125802778Y-50327991D01*
X125790049Y-50343501D01*
X125690186Y-50465186D01*
X125588729Y-50548448D01*
X125552991Y-50577778D01*
X125552989Y-50577779D01*
X125396467Y-50661443D01*
X125339853Y-50678616D01*
X125226627Y-50712963D01*
X125160442Y-50719482D01*
X125094260Y-50726000D01*
X125005740Y-50726000D01*
X124939558Y-50719482D01*
X124873373Y-50712963D01*
X124760147Y-50678616D01*
X124703533Y-50661443D01*
X124547011Y-50577779D01*
X124547009Y-50577778D01*
X124511271Y-50548448D01*
X124409814Y-50465186D01*
X124309951Y-50343501D01*
X124297222Y-50327991D01*
X124225197Y-50193243D01*
X124213557Y-50171467D01*
X124196384Y-50114853D01*
X124162037Y-50001627D01*
X124144641Y-49825000D01*
X124162037Y-49648373D01*
X124213557Y-49478534D01*
X124213557Y-49478533D01*
X124297221Y-49322011D01*
X124297222Y-49322009D01*
X124326552Y-49286271D01*
X124409814Y-49184814D01*
X124511271Y-49101552D01*
X124547009Y-49072222D01*
X124564913Y-49062652D01*
X124703533Y-48988557D01*
X124760147Y-48971384D01*
X124873373Y-48937037D01*
X124939558Y-48930518D01*
X125005740Y-48924000D01*
X125094260Y-48924000D01*
X125160443Y-48930519D01*
X125160443Y-48930519D01*
G37*
G36*
X130617083Y-44097975D02*
X130617085Y-44097976D01*
X130617086Y-44097976D01*
X130972145Y-44245046D01*
X130972146Y-44245047D01*
X131291693Y-44458561D01*
X131563439Y-44730307D01*
X131563441Y-44730310D01*
X131776954Y-45049855D01*
X131861733Y-45254530D01*
X131924025Y-45404917D01*
X131999000Y-45781842D01*
X131999000Y-46166158D01*
X131933936Y-46493258D01*
X131924024Y-46543086D01*
X131776954Y-46898145D01*
X131776953Y-46898146D01*
X131563439Y-47217693D01*
X131291693Y-47489439D01*
X131291690Y-47489441D01*
X130972145Y-47702954D01*
X130617086Y-47850024D01*
X130617085Y-47850024D01*
X130617083Y-47850025D01*
X130240158Y-47925000D01*
X129855842Y-47925000D01*
X129478917Y-47850025D01*
X129478915Y-47850024D01*
X129478914Y-47850024D01*
X129123855Y-47702954D01*
X128804310Y-47489441D01*
X128804307Y-47489439D01*
X128532561Y-47217693D01*
X128319047Y-46898146D01*
X128319046Y-46898145D01*
X128171976Y-46543086D01*
X128162065Y-46493258D01*
X128097000Y-46166158D01*
X128097000Y-45781842D01*
X128171975Y-45404917D01*
X128234267Y-45254530D01*
X128319046Y-45049855D01*
X128532559Y-44730310D01*
X128532561Y-44730307D01*
X128804307Y-44458561D01*
X129123854Y-44245047D01*
X129123855Y-44245046D01*
X129478914Y-44097976D01*
X129478915Y-44097976D01*
X129478917Y-44097975D01*
X129855842Y-44023000D01*
X130240158Y-44023000D01*
X130617083Y-44097975D01*
X130617083Y-44097975D01*
G37*
G36*
X137437142Y-45193242D02*
X137585102Y-45254530D01*
X137718258Y-45343502D01*
X137831498Y-45456742D01*
X137920470Y-45589898D01*
X137981758Y-45737858D01*
X138013000Y-45894925D01*
X138013000Y-46055075D01*
X137981758Y-46212142D01*
X137920470Y-46360102D01*
X137831498Y-46493258D01*
X137718258Y-46606498D01*
X137585102Y-46695470D01*
X137437142Y-46756758D01*
X137280075Y-46788000D01*
X137119925Y-46788000D01*
X136962858Y-46756758D01*
X136814898Y-46695470D01*
X136681742Y-46606498D01*
X136568502Y-46493258D01*
X136479530Y-46360102D01*
X136418242Y-46212142D01*
X136387000Y-46055075D01*
X136387000Y-45894925D01*
X136418242Y-45737858D01*
X136479530Y-45589898D01*
X136568502Y-45456742D01*
X136681742Y-45343502D01*
X136814898Y-45254530D01*
X136962858Y-45193242D01*
X137119925Y-45162000D01*
X137280075Y-45162000D01*
X137437142Y-45193242D01*
X137437142Y-45193242D01*
G37*
M02*
