G04 #@! TF.GenerationSoftware,KiCad,Pcbnew,(5.0.2)-1*
G04 #@! TF.CreationDate,2019-05-29T15:32:01+01:00*
G04 #@! TF.ProjectId,ultrasound_adapter,756c7472-6173-46f7-956e-645f61646170,rev?*
G04 #@! TF.SameCoordinates,Original*
G04 #@! TF.FileFunction,Copper,L1,Top*
G04 #@! TF.FilePolarity,Positive*
%FSLAX46Y46*%
G04 Gerber Fmt 4.6, Leading zero omitted, Abs format (unit mm)*
G04 Created by KiCad (PCBNEW (5.0.2)-1) date 29/05/2019 15:32:01*
%MOMM*%
%LPD*%
G01*
G04 APERTURE LIST*
G04 #@! TA.AperFunction,SMDPad,CuDef*
%ADD10R,1.250000X1.500000*%
G04 #@! TD*
G04 #@! TA.AperFunction,ComponentPad*
%ADD11O,1.700000X1.700000*%
G04 #@! TD*
G04 #@! TA.AperFunction,ComponentPad*
%ADD12R,1.700000X1.700000*%
G04 #@! TD*
G04 #@! TA.AperFunction,ComponentPad*
%ADD13C,1.524000*%
G04 #@! TD*
G04 #@! TA.AperFunction,Conductor*
%ADD14C,0.250000*%
G04 #@! TD*
G04 #@! TA.AperFunction,Conductor*
%ADD15C,0.254000*%
G04 #@! TD*
G04 APERTURE END LIST*
D10*
G04 #@! TO.P,C1,2*
G04 #@! TO.N,GND*
X134075000Y-54425000D03*
G04 #@! TO.P,C1,1*
G04 #@! TO.N,VCC*
X134075000Y-51925000D03*
G04 #@! TD*
D11*
G04 #@! TO.P,J1,4*
G04 #@! TO.N,GND*
X125025000Y-57445000D03*
G04 #@! TO.P,J1,3*
G04 #@! TO.N,Echo*
X125025000Y-54905000D03*
G04 #@! TO.P,J1,2*
G04 #@! TO.N,Trig*
X125025000Y-52365000D03*
D12*
G04 #@! TO.P,J1,1*
G04 #@! TO.N,VCC*
X125025000Y-49825000D03*
G04 #@! TD*
D13*
G04 #@! TO.P,J2,1*
G04 #@! TO.N,VCC*
X137200000Y-45975000D03*
G04 #@! TO.P,J2,2*
G04 #@! TO.N,Trig*
X137200000Y-50975000D03*
G04 #@! TO.P,J2,3*
G04 #@! TO.N,Echo*
X137200000Y-55975000D03*
G04 #@! TO.P,J2,4*
G04 #@! TO.N,GND*
X137200000Y-60975000D03*
G04 #@! TD*
D14*
G04 #@! TO.N,GND*
X134075000Y-57850000D02*
X137200000Y-60975000D01*
X134075000Y-54425000D02*
X134075000Y-57850000D01*
G04 #@! TO.N,VCC*
X136438001Y-46736999D02*
X136413001Y-46736999D01*
X137200000Y-45975000D02*
X136438001Y-46736999D01*
X134075000Y-49075000D02*
X134075000Y-51925000D01*
X136413001Y-46736999D02*
X134075000Y-49075000D01*
G04 #@! TD*
D15*
G04 #@! TO.N,GND*
G36*
X140565001Y-62840000D02*
X123910000Y-62840000D01*
X123910000Y-61955213D01*
X136399392Y-61955213D01*
X136468857Y-62197397D01*
X136992302Y-62384144D01*
X137547368Y-62356362D01*
X137931143Y-62197397D01*
X138000608Y-61955213D01*
X137200000Y-61154605D01*
X136399392Y-61955213D01*
X123910000Y-61955213D01*
X123910000Y-60767302D01*
X135790856Y-60767302D01*
X135818638Y-61322368D01*
X135977603Y-61706143D01*
X136219787Y-61775608D01*
X137020395Y-60975000D01*
X137379605Y-60975000D01*
X138180213Y-61775608D01*
X138422397Y-61706143D01*
X138609144Y-61182698D01*
X138581362Y-60627632D01*
X138422397Y-60243857D01*
X138180213Y-60174392D01*
X137379605Y-60975000D01*
X137020395Y-60975000D01*
X136219787Y-60174392D01*
X135977603Y-60243857D01*
X135790856Y-60767302D01*
X123910000Y-60767302D01*
X123910000Y-59994787D01*
X136399392Y-59994787D01*
X137200000Y-60795395D01*
X138000608Y-59994787D01*
X137931143Y-59752603D01*
X137407698Y-59565856D01*
X136852632Y-59593638D01*
X136468857Y-59752603D01*
X136399392Y-59994787D01*
X123910000Y-59994787D01*
X123910000Y-58383809D01*
X124143642Y-58640183D01*
X124668108Y-58886486D01*
X124898000Y-58765819D01*
X124898000Y-57572000D01*
X125152000Y-57572000D01*
X125152000Y-58765819D01*
X125381892Y-58886486D01*
X125906358Y-58640183D01*
X126296645Y-58211924D01*
X126466476Y-57801890D01*
X126345155Y-57572000D01*
X125152000Y-57572000D01*
X124898000Y-57572000D01*
X124878000Y-57572000D01*
X124878000Y-57318000D01*
X124898000Y-57318000D01*
X124898000Y-57298000D01*
X125152000Y-57298000D01*
X125152000Y-57318000D01*
X126345155Y-57318000D01*
X126466476Y-57088110D01*
X126296645Y-56678076D01*
X125906358Y-56249817D01*
X125776522Y-56188843D01*
X126095625Y-55975625D01*
X126423839Y-55484418D01*
X126539092Y-54905000D01*
X126500454Y-54710750D01*
X132815000Y-54710750D01*
X132815000Y-55301309D01*
X132911673Y-55534698D01*
X133090301Y-55713327D01*
X133323690Y-55810000D01*
X133789250Y-55810000D01*
X133948000Y-55651250D01*
X133948000Y-54552000D01*
X134202000Y-54552000D01*
X134202000Y-55651250D01*
X134360750Y-55810000D01*
X134826310Y-55810000D01*
X135059699Y-55713327D01*
X135075906Y-55697119D01*
X135803000Y-55697119D01*
X135803000Y-56252881D01*
X136015680Y-56766337D01*
X136408663Y-57159320D01*
X136922119Y-57372000D01*
X137477881Y-57372000D01*
X137991337Y-57159320D01*
X138384320Y-56766337D01*
X138597000Y-56252881D01*
X138597000Y-55697119D01*
X138384320Y-55183663D01*
X137991337Y-54790680D01*
X137477881Y-54578000D01*
X136922119Y-54578000D01*
X136408663Y-54790680D01*
X136015680Y-55183663D01*
X135803000Y-55697119D01*
X135075906Y-55697119D01*
X135238327Y-55534698D01*
X135335000Y-55301309D01*
X135335000Y-54710750D01*
X135176250Y-54552000D01*
X134202000Y-54552000D01*
X133948000Y-54552000D01*
X132973750Y-54552000D01*
X132815000Y-54710750D01*
X126500454Y-54710750D01*
X126423839Y-54325582D01*
X126095625Y-53834375D01*
X125797239Y-53635000D01*
X126095625Y-53435625D01*
X126423839Y-52944418D01*
X126539092Y-52365000D01*
X126423839Y-51785582D01*
X126095625Y-51294375D01*
X126077381Y-51282184D01*
X126122765Y-51273157D01*
X126269666Y-51175000D01*
X132802560Y-51175000D01*
X132802560Y-52675000D01*
X132851843Y-52922765D01*
X132992191Y-53132809D01*
X133053320Y-53173654D01*
X132911673Y-53315302D01*
X132815000Y-53548691D01*
X132815000Y-54139250D01*
X132973750Y-54298000D01*
X133948000Y-54298000D01*
X133948000Y-54278000D01*
X134202000Y-54278000D01*
X134202000Y-54298000D01*
X135176250Y-54298000D01*
X135335000Y-54139250D01*
X135335000Y-53548691D01*
X135238327Y-53315302D01*
X135096680Y-53173654D01*
X135157809Y-53132809D01*
X135298157Y-52922765D01*
X135347440Y-52675000D01*
X135347440Y-51175000D01*
X135298157Y-50927235D01*
X135157809Y-50717191D01*
X135127770Y-50697119D01*
X135803000Y-50697119D01*
X135803000Y-51252881D01*
X136015680Y-51766337D01*
X136408663Y-52159320D01*
X136922119Y-52372000D01*
X137477881Y-52372000D01*
X137991337Y-52159320D01*
X138384320Y-51766337D01*
X138597000Y-51252881D01*
X138597000Y-50697119D01*
X138384320Y-50183663D01*
X137991337Y-49790680D01*
X137477881Y-49578000D01*
X136922119Y-49578000D01*
X136408663Y-49790680D01*
X136015680Y-50183663D01*
X135803000Y-50697119D01*
X135127770Y-50697119D01*
X134947765Y-50576843D01*
X134835000Y-50554413D01*
X134835000Y-49389801D01*
X136847132Y-47377670D01*
X136881067Y-47354996D01*
X136922119Y-47372000D01*
X137477881Y-47372000D01*
X137991337Y-47159320D01*
X138384320Y-46766337D01*
X138597000Y-46252881D01*
X138597000Y-45697119D01*
X138384320Y-45183663D01*
X137991337Y-44790680D01*
X137477881Y-44578000D01*
X136922119Y-44578000D01*
X136408663Y-44790680D01*
X136015680Y-45183663D01*
X135803000Y-45697119D01*
X135803000Y-46252881D01*
X135808658Y-46266540D01*
X133590530Y-48484669D01*
X133527071Y-48527071D01*
X133359096Y-48778464D01*
X133315000Y-49000149D01*
X133315000Y-49000153D01*
X133300112Y-49075000D01*
X133315000Y-49149847D01*
X133315001Y-50554413D01*
X133202235Y-50576843D01*
X132992191Y-50717191D01*
X132851843Y-50927235D01*
X132802560Y-51175000D01*
X126269666Y-51175000D01*
X126332809Y-51132809D01*
X126473157Y-50922765D01*
X126522440Y-50675000D01*
X126522440Y-48975000D01*
X126473157Y-48727235D01*
X126332809Y-48517191D01*
X126122765Y-48376843D01*
X125875000Y-48327560D01*
X124175000Y-48327560D01*
X123927235Y-48376843D01*
X123910000Y-48388359D01*
X123910000Y-44110000D01*
X140565000Y-44110000D01*
X140565001Y-62840000D01*
X140565001Y-62840000D01*
G37*
X140565001Y-62840000D02*
X123910000Y-62840000D01*
X123910000Y-61955213D01*
X136399392Y-61955213D01*
X136468857Y-62197397D01*
X136992302Y-62384144D01*
X137547368Y-62356362D01*
X137931143Y-62197397D01*
X138000608Y-61955213D01*
X137200000Y-61154605D01*
X136399392Y-61955213D01*
X123910000Y-61955213D01*
X123910000Y-60767302D01*
X135790856Y-60767302D01*
X135818638Y-61322368D01*
X135977603Y-61706143D01*
X136219787Y-61775608D01*
X137020395Y-60975000D01*
X137379605Y-60975000D01*
X138180213Y-61775608D01*
X138422397Y-61706143D01*
X138609144Y-61182698D01*
X138581362Y-60627632D01*
X138422397Y-60243857D01*
X138180213Y-60174392D01*
X137379605Y-60975000D01*
X137020395Y-60975000D01*
X136219787Y-60174392D01*
X135977603Y-60243857D01*
X135790856Y-60767302D01*
X123910000Y-60767302D01*
X123910000Y-59994787D01*
X136399392Y-59994787D01*
X137200000Y-60795395D01*
X138000608Y-59994787D01*
X137931143Y-59752603D01*
X137407698Y-59565856D01*
X136852632Y-59593638D01*
X136468857Y-59752603D01*
X136399392Y-59994787D01*
X123910000Y-59994787D01*
X123910000Y-58383809D01*
X124143642Y-58640183D01*
X124668108Y-58886486D01*
X124898000Y-58765819D01*
X124898000Y-57572000D01*
X125152000Y-57572000D01*
X125152000Y-58765819D01*
X125381892Y-58886486D01*
X125906358Y-58640183D01*
X126296645Y-58211924D01*
X126466476Y-57801890D01*
X126345155Y-57572000D01*
X125152000Y-57572000D01*
X124898000Y-57572000D01*
X124878000Y-57572000D01*
X124878000Y-57318000D01*
X124898000Y-57318000D01*
X124898000Y-57298000D01*
X125152000Y-57298000D01*
X125152000Y-57318000D01*
X126345155Y-57318000D01*
X126466476Y-57088110D01*
X126296645Y-56678076D01*
X125906358Y-56249817D01*
X125776522Y-56188843D01*
X126095625Y-55975625D01*
X126423839Y-55484418D01*
X126539092Y-54905000D01*
X126500454Y-54710750D01*
X132815000Y-54710750D01*
X132815000Y-55301309D01*
X132911673Y-55534698D01*
X133090301Y-55713327D01*
X133323690Y-55810000D01*
X133789250Y-55810000D01*
X133948000Y-55651250D01*
X133948000Y-54552000D01*
X134202000Y-54552000D01*
X134202000Y-55651250D01*
X134360750Y-55810000D01*
X134826310Y-55810000D01*
X135059699Y-55713327D01*
X135075906Y-55697119D01*
X135803000Y-55697119D01*
X135803000Y-56252881D01*
X136015680Y-56766337D01*
X136408663Y-57159320D01*
X136922119Y-57372000D01*
X137477881Y-57372000D01*
X137991337Y-57159320D01*
X138384320Y-56766337D01*
X138597000Y-56252881D01*
X138597000Y-55697119D01*
X138384320Y-55183663D01*
X137991337Y-54790680D01*
X137477881Y-54578000D01*
X136922119Y-54578000D01*
X136408663Y-54790680D01*
X136015680Y-55183663D01*
X135803000Y-55697119D01*
X135075906Y-55697119D01*
X135238327Y-55534698D01*
X135335000Y-55301309D01*
X135335000Y-54710750D01*
X135176250Y-54552000D01*
X134202000Y-54552000D01*
X133948000Y-54552000D01*
X132973750Y-54552000D01*
X132815000Y-54710750D01*
X126500454Y-54710750D01*
X126423839Y-54325582D01*
X126095625Y-53834375D01*
X125797239Y-53635000D01*
X126095625Y-53435625D01*
X126423839Y-52944418D01*
X126539092Y-52365000D01*
X126423839Y-51785582D01*
X126095625Y-51294375D01*
X126077381Y-51282184D01*
X126122765Y-51273157D01*
X126269666Y-51175000D01*
X132802560Y-51175000D01*
X132802560Y-52675000D01*
X132851843Y-52922765D01*
X132992191Y-53132809D01*
X133053320Y-53173654D01*
X132911673Y-53315302D01*
X132815000Y-53548691D01*
X132815000Y-54139250D01*
X132973750Y-54298000D01*
X133948000Y-54298000D01*
X133948000Y-54278000D01*
X134202000Y-54278000D01*
X134202000Y-54298000D01*
X135176250Y-54298000D01*
X135335000Y-54139250D01*
X135335000Y-53548691D01*
X135238327Y-53315302D01*
X135096680Y-53173654D01*
X135157809Y-53132809D01*
X135298157Y-52922765D01*
X135347440Y-52675000D01*
X135347440Y-51175000D01*
X135298157Y-50927235D01*
X135157809Y-50717191D01*
X135127770Y-50697119D01*
X135803000Y-50697119D01*
X135803000Y-51252881D01*
X136015680Y-51766337D01*
X136408663Y-52159320D01*
X136922119Y-52372000D01*
X137477881Y-52372000D01*
X137991337Y-52159320D01*
X138384320Y-51766337D01*
X138597000Y-51252881D01*
X138597000Y-50697119D01*
X138384320Y-50183663D01*
X137991337Y-49790680D01*
X137477881Y-49578000D01*
X136922119Y-49578000D01*
X136408663Y-49790680D01*
X136015680Y-50183663D01*
X135803000Y-50697119D01*
X135127770Y-50697119D01*
X134947765Y-50576843D01*
X134835000Y-50554413D01*
X134835000Y-49389801D01*
X136847132Y-47377670D01*
X136881067Y-47354996D01*
X136922119Y-47372000D01*
X137477881Y-47372000D01*
X137991337Y-47159320D01*
X138384320Y-46766337D01*
X138597000Y-46252881D01*
X138597000Y-45697119D01*
X138384320Y-45183663D01*
X137991337Y-44790680D01*
X137477881Y-44578000D01*
X136922119Y-44578000D01*
X136408663Y-44790680D01*
X136015680Y-45183663D01*
X135803000Y-45697119D01*
X135803000Y-46252881D01*
X135808658Y-46266540D01*
X133590530Y-48484669D01*
X133527071Y-48527071D01*
X133359096Y-48778464D01*
X133315000Y-49000149D01*
X133315000Y-49000153D01*
X133300112Y-49075000D01*
X133315000Y-49149847D01*
X133315001Y-50554413D01*
X133202235Y-50576843D01*
X132992191Y-50717191D01*
X132851843Y-50927235D01*
X132802560Y-51175000D01*
X126269666Y-51175000D01*
X126332809Y-51132809D01*
X126473157Y-50922765D01*
X126522440Y-50675000D01*
X126522440Y-48975000D01*
X126473157Y-48727235D01*
X126332809Y-48517191D01*
X126122765Y-48376843D01*
X125875000Y-48327560D01*
X124175000Y-48327560D01*
X123927235Y-48376843D01*
X123910000Y-48388359D01*
X123910000Y-44110000D01*
X140565000Y-44110000D01*
X140565001Y-62840000D01*
G04 #@! TD*
M02*
