G04 #@! TF.GenerationSoftware,KiCad,Pcbnew,(5.0.2)-1*
G04 #@! TF.CreationDate,2019-05-29T15:32:02+01:00*
G04 #@! TF.ProjectId,ultrasound_adapter,756c7472-6173-46f7-956e-645f61646170,rev?*
G04 #@! TF.SameCoordinates,Original*
G04 #@! TF.FileFunction,Soldermask,Top*
G04 #@! TF.FilePolarity,Negative*
%FSLAX46Y46*%
G04 Gerber Fmt 4.6, Leading zero omitted, Abs format (unit mm)*
G04 Created by KiCad (PCBNEW (5.0.2)-1) date 29/05/2019 15:32:02*
%MOMM*%
%LPD*%
G01*
G04 APERTURE LIST*
%ADD10C,0.100000*%
G04 APERTURE END LIST*
D10*
G36*
X137437142Y-60193242D02*
X137585102Y-60254530D01*
X137718258Y-60343502D01*
X137831498Y-60456742D01*
X137920470Y-60589898D01*
X137981758Y-60737858D01*
X138013000Y-60894925D01*
X138013000Y-61055075D01*
X137981758Y-61212142D01*
X137920470Y-61360102D01*
X137831498Y-61493258D01*
X137718258Y-61606498D01*
X137585102Y-61695470D01*
X137437142Y-61756758D01*
X137280075Y-61788000D01*
X137119925Y-61788000D01*
X136962858Y-61756758D01*
X136814898Y-61695470D01*
X136681742Y-61606498D01*
X136568502Y-61493258D01*
X136479530Y-61360102D01*
X136418242Y-61212142D01*
X136387000Y-61055075D01*
X136387000Y-60894925D01*
X136418242Y-60737858D01*
X136479530Y-60589898D01*
X136568502Y-60456742D01*
X136681742Y-60343502D01*
X136814898Y-60254530D01*
X136962858Y-60193242D01*
X137119925Y-60162000D01*
X137280075Y-60162000D01*
X137437142Y-60193242D01*
X137437142Y-60193242D01*
G37*
G36*
X125135442Y-56550518D02*
X125201627Y-56557037D01*
X125314853Y-56591384D01*
X125371467Y-56608557D01*
X125510087Y-56682652D01*
X125527991Y-56692222D01*
X125563729Y-56721552D01*
X125665186Y-56804814D01*
X125748448Y-56906271D01*
X125777778Y-56942009D01*
X125777779Y-56942011D01*
X125861443Y-57098533D01*
X125861443Y-57098534D01*
X125912963Y-57268373D01*
X125930359Y-57445000D01*
X125912963Y-57621627D01*
X125878616Y-57734853D01*
X125861443Y-57791467D01*
X125787348Y-57930087D01*
X125777778Y-57947991D01*
X125748448Y-57983729D01*
X125665186Y-58085186D01*
X125563729Y-58168448D01*
X125527991Y-58197778D01*
X125527989Y-58197779D01*
X125371467Y-58281443D01*
X125314853Y-58298616D01*
X125201627Y-58332963D01*
X125135442Y-58339482D01*
X125069260Y-58346000D01*
X124980740Y-58346000D01*
X124914558Y-58339482D01*
X124848373Y-58332963D01*
X124735147Y-58298616D01*
X124678533Y-58281443D01*
X124522011Y-58197779D01*
X124522009Y-58197778D01*
X124486271Y-58168448D01*
X124384814Y-58085186D01*
X124301552Y-57983729D01*
X124272222Y-57947991D01*
X124262652Y-57930087D01*
X124188557Y-57791467D01*
X124171384Y-57734853D01*
X124137037Y-57621627D01*
X124119641Y-57445000D01*
X124137037Y-57268373D01*
X124188557Y-57098534D01*
X124188557Y-57098533D01*
X124272221Y-56942011D01*
X124272222Y-56942009D01*
X124301552Y-56906271D01*
X124384814Y-56804814D01*
X124486271Y-56721552D01*
X124522009Y-56692222D01*
X124539913Y-56682652D01*
X124678533Y-56608557D01*
X124735147Y-56591384D01*
X124848373Y-56557037D01*
X124914558Y-56550518D01*
X124980740Y-56544000D01*
X125069260Y-56544000D01*
X125135442Y-56550518D01*
X125135442Y-56550518D01*
G37*
G36*
X137437142Y-55193242D02*
X137551583Y-55240646D01*
X137577708Y-55251467D01*
X137585102Y-55254530D01*
X137718258Y-55343502D01*
X137831498Y-55456742D01*
X137920470Y-55589898D01*
X137981758Y-55737858D01*
X138013000Y-55894925D01*
X138013000Y-56055075D01*
X137981758Y-56212142D01*
X137934354Y-56326583D01*
X137920471Y-56360100D01*
X137831499Y-56493257D01*
X137718257Y-56606499D01*
X137652130Y-56650683D01*
X137585102Y-56695470D01*
X137437142Y-56756758D01*
X137280075Y-56788000D01*
X137119925Y-56788000D01*
X136962858Y-56756758D01*
X136814898Y-56695470D01*
X136747870Y-56650683D01*
X136681743Y-56606499D01*
X136568501Y-56493257D01*
X136479529Y-56360100D01*
X136465646Y-56326583D01*
X136418242Y-56212142D01*
X136387000Y-56055075D01*
X136387000Y-55894925D01*
X136418242Y-55737858D01*
X136479530Y-55589898D01*
X136568502Y-55456742D01*
X136681742Y-55343502D01*
X136814898Y-55254530D01*
X136822293Y-55251467D01*
X136848417Y-55240646D01*
X136962858Y-55193242D01*
X137119925Y-55162000D01*
X137280075Y-55162000D01*
X137437142Y-55193242D01*
X137437142Y-55193242D01*
G37*
G36*
X125135443Y-54010519D02*
X125201627Y-54017037D01*
X125314853Y-54051384D01*
X125371467Y-54068557D01*
X125510087Y-54142652D01*
X125527991Y-54152222D01*
X125563729Y-54181552D01*
X125665186Y-54264814D01*
X125748448Y-54366271D01*
X125777778Y-54402009D01*
X125777779Y-54402011D01*
X125861443Y-54558533D01*
X125861443Y-54558534D01*
X125912963Y-54728373D01*
X125930359Y-54905000D01*
X125912963Y-55081627D01*
X125888582Y-55162000D01*
X125861443Y-55251467D01*
X125787348Y-55390087D01*
X125777778Y-55407991D01*
X125748448Y-55443729D01*
X125665186Y-55545186D01*
X125563729Y-55628448D01*
X125527991Y-55657778D01*
X125527989Y-55657779D01*
X125371467Y-55741443D01*
X125314853Y-55758616D01*
X125201627Y-55792963D01*
X125135442Y-55799482D01*
X125069260Y-55806000D01*
X124980740Y-55806000D01*
X124914558Y-55799482D01*
X124848373Y-55792963D01*
X124735147Y-55758616D01*
X124678533Y-55741443D01*
X124522011Y-55657779D01*
X124522009Y-55657778D01*
X124486271Y-55628448D01*
X124384814Y-55545186D01*
X124301552Y-55443729D01*
X124272222Y-55407991D01*
X124262652Y-55390087D01*
X124188557Y-55251467D01*
X124161418Y-55162000D01*
X124137037Y-55081627D01*
X124119641Y-54905000D01*
X124137037Y-54728373D01*
X124188557Y-54558534D01*
X124188557Y-54558533D01*
X124272221Y-54402011D01*
X124272222Y-54402009D01*
X124301552Y-54366271D01*
X124384814Y-54264814D01*
X124486271Y-54181552D01*
X124522009Y-54152222D01*
X124539913Y-54142652D01*
X124678533Y-54068557D01*
X124735147Y-54051384D01*
X124848373Y-54017037D01*
X124914557Y-54010519D01*
X124980740Y-54004000D01*
X125069260Y-54004000D01*
X125135443Y-54010519D01*
X125135443Y-54010519D01*
G37*
G36*
X134751000Y-55226000D02*
X133399000Y-55226000D01*
X133399000Y-53624000D01*
X134751000Y-53624000D01*
X134751000Y-55226000D01*
X134751000Y-55226000D01*
G37*
G36*
X125135443Y-51470519D02*
X125201627Y-51477037D01*
X125314853Y-51511384D01*
X125371467Y-51528557D01*
X125510087Y-51602652D01*
X125527991Y-51612222D01*
X125563729Y-51641552D01*
X125665186Y-51724814D01*
X125748448Y-51826271D01*
X125777778Y-51862009D01*
X125777779Y-51862011D01*
X125861443Y-52018533D01*
X125861443Y-52018534D01*
X125912963Y-52188373D01*
X125930359Y-52365000D01*
X125912963Y-52541627D01*
X125878616Y-52654853D01*
X125861443Y-52711467D01*
X125787348Y-52850087D01*
X125777778Y-52867991D01*
X125748448Y-52903729D01*
X125665186Y-53005186D01*
X125563729Y-53088448D01*
X125527991Y-53117778D01*
X125527989Y-53117779D01*
X125371467Y-53201443D01*
X125314853Y-53218616D01*
X125201627Y-53252963D01*
X125135443Y-53259481D01*
X125069260Y-53266000D01*
X124980740Y-53266000D01*
X124914557Y-53259481D01*
X124848373Y-53252963D01*
X124735147Y-53218616D01*
X124678533Y-53201443D01*
X124522011Y-53117779D01*
X124522009Y-53117778D01*
X124486271Y-53088448D01*
X124384814Y-53005186D01*
X124301552Y-52903729D01*
X124272222Y-52867991D01*
X124262652Y-52850087D01*
X124188557Y-52711467D01*
X124171384Y-52654853D01*
X124137037Y-52541627D01*
X124119641Y-52365000D01*
X124137037Y-52188373D01*
X124188557Y-52018534D01*
X124188557Y-52018533D01*
X124272221Y-51862011D01*
X124272222Y-51862009D01*
X124301552Y-51826271D01*
X124384814Y-51724814D01*
X124486271Y-51641552D01*
X124522009Y-51612222D01*
X124539913Y-51602652D01*
X124678533Y-51528557D01*
X124735147Y-51511384D01*
X124848373Y-51477037D01*
X124914558Y-51470518D01*
X124980740Y-51464000D01*
X125069260Y-51464000D01*
X125135443Y-51470519D01*
X125135443Y-51470519D01*
G37*
G36*
X134751000Y-52726000D02*
X133399000Y-52726000D01*
X133399000Y-51124000D01*
X134751000Y-51124000D01*
X134751000Y-52726000D01*
X134751000Y-52726000D01*
G37*
G36*
X137437142Y-50193242D02*
X137585102Y-50254530D01*
X137718258Y-50343502D01*
X137831498Y-50456742D01*
X137920470Y-50589898D01*
X137981758Y-50737858D01*
X138013000Y-50894925D01*
X138013000Y-51055075D01*
X137981758Y-51212142D01*
X137934354Y-51326583D01*
X137920471Y-51360100D01*
X137831499Y-51493257D01*
X137718257Y-51606499D01*
X137652130Y-51650683D01*
X137585102Y-51695470D01*
X137437142Y-51756758D01*
X137280075Y-51788000D01*
X137119925Y-51788000D01*
X136962858Y-51756758D01*
X136814898Y-51695470D01*
X136747870Y-51650683D01*
X136681743Y-51606499D01*
X136568501Y-51493257D01*
X136479529Y-51360100D01*
X136465646Y-51326583D01*
X136418242Y-51212142D01*
X136387000Y-51055075D01*
X136387000Y-50894925D01*
X136418242Y-50737858D01*
X136479530Y-50589898D01*
X136568502Y-50456742D01*
X136681742Y-50343502D01*
X136814898Y-50254530D01*
X136962858Y-50193242D01*
X137119925Y-50162000D01*
X137280075Y-50162000D01*
X137437142Y-50193242D01*
X137437142Y-50193242D01*
G37*
G36*
X125926000Y-50726000D02*
X124124000Y-50726000D01*
X124124000Y-48924000D01*
X125926000Y-48924000D01*
X125926000Y-50726000D01*
X125926000Y-50726000D01*
G37*
G36*
X137437142Y-45193242D02*
X137585102Y-45254530D01*
X137718258Y-45343502D01*
X137831498Y-45456742D01*
X137920470Y-45589898D01*
X137981758Y-45737858D01*
X138013000Y-45894925D01*
X138013000Y-46055075D01*
X137981758Y-46212142D01*
X137920470Y-46360102D01*
X137831498Y-46493258D01*
X137718258Y-46606498D01*
X137585102Y-46695470D01*
X137437142Y-46756758D01*
X137280075Y-46788000D01*
X137119925Y-46788000D01*
X136962858Y-46756758D01*
X136814898Y-46695470D01*
X136681742Y-46606498D01*
X136568502Y-46493258D01*
X136479530Y-46360102D01*
X136418242Y-46212142D01*
X136387000Y-46055075D01*
X136387000Y-45894925D01*
X136418242Y-45737858D01*
X136479530Y-45589898D01*
X136568502Y-45456742D01*
X136681742Y-45343502D01*
X136814898Y-45254530D01*
X136962858Y-45193242D01*
X137119925Y-45162000D01*
X137280075Y-45162000D01*
X137437142Y-45193242D01*
X137437142Y-45193242D01*
G37*
M02*
