G04 #@! TF.GenerationSoftware,KiCad,Pcbnew,(5.0.2)-1*
G04 #@! TF.CreationDate,2019-06-10T20:52:18+01:00*
G04 #@! TF.ProjectId,ultrasound_adapter,756c7472-6173-46f7-956e-645f61646170,rev?*
G04 #@! TF.SameCoordinates,Original*
G04 #@! TF.FileFunction,Legend,Top*
G04 #@! TF.FilePolarity,Positive*
%FSLAX46Y46*%
G04 Gerber Fmt 4.6, Leading zero omitted, Abs format (unit mm)*
G04 Created by KiCad (PCBNEW (5.0.2)-1) date 10/06/2019 20:52:18*
%MOMM*%
%LPD*%
G01*
G04 APERTURE LIST*
%ADD10C,0.150000*%
G04 APERTURE END LIST*
G04 #@! TO.C,J2*
D10*
X131492666Y-58762380D02*
X131492666Y-59476666D01*
X131445047Y-59619523D01*
X131349809Y-59714761D01*
X131206952Y-59762380D01*
X131111714Y-59762380D01*
X131921238Y-58857619D02*
X131968857Y-58810000D01*
X132064095Y-58762380D01*
X132302190Y-58762380D01*
X132397428Y-58810000D01*
X132445047Y-58857619D01*
X132492666Y-58952857D01*
X132492666Y-59048095D01*
X132445047Y-59190952D01*
X131873619Y-59762380D01*
X132492666Y-59762380D01*
G04 #@! TO.C,H1*
X127508095Y-78186380D02*
X127508095Y-77186380D01*
X127508095Y-77662571D02*
X128079523Y-77662571D01*
X128079523Y-78186380D02*
X128079523Y-77186380D01*
X129079523Y-78186380D02*
X128508095Y-78186380D01*
X128793809Y-78186380D02*
X128793809Y-77186380D01*
X128698571Y-77329238D01*
X128603333Y-77424476D01*
X128508095Y-77472095D01*
G04 #@! TO.C,H2*
X127762095Y-41610380D02*
X127762095Y-40610380D01*
X127762095Y-41086571D02*
X128333523Y-41086571D01*
X128333523Y-41610380D02*
X128333523Y-40610380D01*
X128762095Y-40705619D02*
X128809714Y-40658000D01*
X128904952Y-40610380D01*
X129143047Y-40610380D01*
X129238285Y-40658000D01*
X129285904Y-40705619D01*
X129333523Y-40800857D01*
X129333523Y-40896095D01*
X129285904Y-41038952D01*
X128714476Y-41610380D01*
X129333523Y-41610380D01*
G04 #@! TD*
M02*
