G04 #@! TF.GenerationSoftware,KiCad,Pcbnew,(5.0.2)-1*
G04 #@! TF.CreationDate,2019-06-10T20:52:18+01:00*
G04 #@! TF.ProjectId,ultrasound_adapter,756c7472-6173-46f7-956e-645f61646170,rev?*
G04 #@! TF.SameCoordinates,Original*
G04 #@! TF.FileFunction,Legend,Bot*
G04 #@! TF.FilePolarity,Positive*
%FSLAX46Y46*%
G04 Gerber Fmt 4.6, Leading zero omitted, Abs format (unit mm)*
G04 Created by KiCad (PCBNEW (5.0.2)-1) date 10/06/2019 20:52:18*
%MOMM*%
%LPD*%
G01*
G04 APERTURE LIST*
%ADD10C,0.250000*%
%ADD11C,0.300000*%
%ADD12C,0.120000*%
%ADD13C,0.150000*%
G04 APERTURE END LIST*
D10*
X136914000Y-50800095D02*
X136866380Y-50704857D01*
X136866380Y-50562000D01*
X136914000Y-50419142D01*
X137009238Y-50323904D01*
X137104476Y-50276285D01*
X137294952Y-50228666D01*
X137437809Y-50228666D01*
X137628285Y-50276285D01*
X137723523Y-50323904D01*
X137818761Y-50419142D01*
X137866380Y-50562000D01*
X137866380Y-50657238D01*
X137818761Y-50800095D01*
X137771142Y-50847714D01*
X137437809Y-50847714D01*
X137437809Y-50657238D01*
X137866380Y-51276285D02*
X136866380Y-51276285D01*
X137866380Y-51847714D01*
X136866380Y-51847714D01*
X137866380Y-52323904D02*
X136866380Y-52323904D01*
X136866380Y-52562000D01*
X136914000Y-52704857D01*
X137009238Y-52800095D01*
X137104476Y-52847714D01*
X137294952Y-52895333D01*
X137437809Y-52895333D01*
X137628285Y-52847714D01*
X137723523Y-52800095D01*
X137818761Y-52704857D01*
X137866380Y-52562000D01*
X137866380Y-52323904D01*
X137088571Y-55094380D02*
X137088571Y-55427714D01*
X137612380Y-55570571D02*
X137612380Y-55094380D01*
X136612380Y-55094380D01*
X136612380Y-55570571D01*
X137564761Y-56427714D02*
X137612380Y-56332476D01*
X137612380Y-56142000D01*
X137564761Y-56046761D01*
X137517142Y-55999142D01*
X137421904Y-55951523D01*
X137136190Y-55951523D01*
X137040952Y-55999142D01*
X136993333Y-56046761D01*
X136945714Y-56142000D01*
X136945714Y-56332476D01*
X136993333Y-56427714D01*
X137612380Y-56856285D02*
X136612380Y-56856285D01*
X137612380Y-57284857D02*
X137088571Y-57284857D01*
X136993333Y-57237238D01*
X136945714Y-57142000D01*
X136945714Y-56999142D01*
X136993333Y-56903904D01*
X137040952Y-56856285D01*
X137612380Y-57903904D02*
X137564761Y-57808666D01*
X137517142Y-57761047D01*
X137421904Y-57713428D01*
X137136190Y-57713428D01*
X137040952Y-57761047D01*
X136993333Y-57808666D01*
X136945714Y-57903904D01*
X136945714Y-58046761D01*
X136993333Y-58142000D01*
X137040952Y-58189619D01*
X137136190Y-58237238D01*
X137421904Y-58237238D01*
X137517142Y-58189619D01*
X137564761Y-58142000D01*
X137612380Y-58046761D01*
X137612380Y-57903904D01*
X136612380Y-60182285D02*
X136612380Y-60753714D01*
X137612380Y-60468000D02*
X136612380Y-60468000D01*
X137612380Y-61087047D02*
X136945714Y-61087047D01*
X137136190Y-61087047D02*
X137040952Y-61134666D01*
X136993333Y-61182285D01*
X136945714Y-61277523D01*
X136945714Y-61372761D01*
X137612380Y-61706095D02*
X136945714Y-61706095D01*
X136612380Y-61706095D02*
X136660000Y-61658476D01*
X136707619Y-61706095D01*
X136660000Y-61753714D01*
X136612380Y-61706095D01*
X136707619Y-61706095D01*
X136945714Y-62610857D02*
X137755238Y-62610857D01*
X137850476Y-62563238D01*
X137898095Y-62515619D01*
X137945714Y-62420380D01*
X137945714Y-62277523D01*
X137898095Y-62182285D01*
X137564761Y-62610857D02*
X137612380Y-62515619D01*
X137612380Y-62325142D01*
X137564761Y-62229904D01*
X137517142Y-62182285D01*
X137421904Y-62134666D01*
X137136190Y-62134666D01*
X137040952Y-62182285D01*
X136993333Y-62229904D01*
X136945714Y-62325142D01*
X136945714Y-62515619D01*
X136993333Y-62610857D01*
X136612380Y-65214666D02*
X137612380Y-65548000D01*
X136612380Y-65881333D01*
X137517142Y-66786095D02*
X137564761Y-66738476D01*
X137612380Y-66595619D01*
X137612380Y-66500380D01*
X137564761Y-66357523D01*
X137469523Y-66262285D01*
X137374285Y-66214666D01*
X137183809Y-66167047D01*
X137040952Y-66167047D01*
X136850476Y-66214666D01*
X136755238Y-66262285D01*
X136660000Y-66357523D01*
X136612380Y-66500380D01*
X136612380Y-66595619D01*
X136660000Y-66738476D01*
X136707619Y-66786095D01*
X137517142Y-67786095D02*
X137564761Y-67738476D01*
X137612380Y-67595619D01*
X137612380Y-67500380D01*
X137564761Y-67357523D01*
X137469523Y-67262285D01*
X137374285Y-67214666D01*
X137183809Y-67167047D01*
X137040952Y-67167047D01*
X136850476Y-67214666D01*
X136755238Y-67262285D01*
X136660000Y-67357523D01*
X136612380Y-67500380D01*
X136612380Y-67595619D01*
X136660000Y-67738476D01*
X136707619Y-67786095D01*
D11*
X122046857Y-58940000D02*
X122189714Y-58868571D01*
X122404000Y-58868571D01*
X122618285Y-58940000D01*
X122761142Y-59082857D01*
X122832571Y-59225714D01*
X122904000Y-59511428D01*
X122904000Y-59725714D01*
X122832571Y-60011428D01*
X122761142Y-60154285D01*
X122618285Y-60297142D01*
X122404000Y-60368571D01*
X122261142Y-60368571D01*
X122046857Y-60297142D01*
X121975428Y-60225714D01*
X121975428Y-59725714D01*
X122261142Y-59725714D01*
X121332571Y-60368571D02*
X121332571Y-58868571D01*
X120475428Y-60368571D01*
X120475428Y-58868571D01*
X119761142Y-60368571D02*
X119761142Y-58868571D01*
X119404000Y-58868571D01*
X119189714Y-58940000D01*
X119046857Y-59082857D01*
X118975428Y-59225714D01*
X118904000Y-59511428D01*
X118904000Y-59725714D01*
X118975428Y-60011428D01*
X119046857Y-60154285D01*
X119189714Y-60297142D01*
X119404000Y-60368571D01*
X119761142Y-60368571D01*
X122971428Y-62122857D02*
X122471428Y-62122857D01*
X122257142Y-62908571D02*
X122971428Y-62908571D01*
X122971428Y-61408571D01*
X122257142Y-61408571D01*
X120971428Y-62837142D02*
X121114285Y-62908571D01*
X121400000Y-62908571D01*
X121542857Y-62837142D01*
X121614285Y-62765714D01*
X121685714Y-62622857D01*
X121685714Y-62194285D01*
X121614285Y-62051428D01*
X121542857Y-61980000D01*
X121400000Y-61908571D01*
X121114285Y-61908571D01*
X120971428Y-61980000D01*
X120328571Y-62908571D02*
X120328571Y-61408571D01*
X119685714Y-62908571D02*
X119685714Y-62122857D01*
X119757142Y-61980000D01*
X119900000Y-61908571D01*
X120114285Y-61908571D01*
X120257142Y-61980000D01*
X120328571Y-62051428D01*
X118757142Y-62908571D02*
X118900000Y-62837142D01*
X118971428Y-62765714D01*
X119042857Y-62622857D01*
X119042857Y-62194285D01*
X118971428Y-62051428D01*
X118900000Y-61980000D01*
X118757142Y-61908571D01*
X118542857Y-61908571D01*
X118400000Y-61980000D01*
X118328571Y-62051428D01*
X118257142Y-62194285D01*
X118257142Y-62622857D01*
X118328571Y-62765714D01*
X118400000Y-62837142D01*
X118542857Y-62908571D01*
X118757142Y-62908571D01*
X122832571Y-63694571D02*
X121975428Y-63694571D01*
X122404000Y-65194571D02*
X122404000Y-63694571D01*
X121475428Y-65194571D02*
X121475428Y-64194571D01*
X121475428Y-64480285D02*
X121404000Y-64337428D01*
X121332571Y-64266000D01*
X121189714Y-64194571D01*
X121046857Y-64194571D01*
X120546857Y-65194571D02*
X120546857Y-64194571D01*
X120546857Y-63694571D02*
X120618285Y-63766000D01*
X120546857Y-63837428D01*
X120475428Y-63766000D01*
X120546857Y-63694571D01*
X120546857Y-63837428D01*
X119189714Y-64194571D02*
X119189714Y-65408857D01*
X119261142Y-65551714D01*
X119332571Y-65623142D01*
X119475428Y-65694571D01*
X119689714Y-65694571D01*
X119832571Y-65623142D01*
X119189714Y-65123142D02*
X119332571Y-65194571D01*
X119618285Y-65194571D01*
X119761142Y-65123142D01*
X119832571Y-65051714D01*
X119904000Y-64908857D01*
X119904000Y-64480285D01*
X119832571Y-64337428D01*
X119761142Y-64266000D01*
X119618285Y-64194571D01*
X119332571Y-64194571D01*
X119189714Y-64266000D01*
X122904000Y-66488571D02*
X122404000Y-67988571D01*
X121904000Y-66488571D01*
X120546857Y-67845714D02*
X120618285Y-67917142D01*
X120832571Y-67988571D01*
X120975428Y-67988571D01*
X121189714Y-67917142D01*
X121332571Y-67774285D01*
X121404000Y-67631428D01*
X121475428Y-67345714D01*
X121475428Y-67131428D01*
X121404000Y-66845714D01*
X121332571Y-66702857D01*
X121189714Y-66560000D01*
X120975428Y-66488571D01*
X120832571Y-66488571D01*
X120618285Y-66560000D01*
X120546857Y-66631428D01*
X119046857Y-67845714D02*
X119118285Y-67917142D01*
X119332571Y-67988571D01*
X119475428Y-67988571D01*
X119689714Y-67917142D01*
X119832571Y-67774285D01*
X119904000Y-67631428D01*
X119975428Y-67345714D01*
X119975428Y-67131428D01*
X119904000Y-66845714D01*
X119832571Y-66702857D01*
X119689714Y-66560000D01*
X119475428Y-66488571D01*
X119332571Y-66488571D01*
X119118285Y-66560000D01*
X119046857Y-66631428D01*
D12*
G04 #@! TO.C,C1*
X134315820Y-75347136D02*
G75*
G02X128280518Y-75348000I-3017820J1179136D01*
G01*
X134315820Y-72988864D02*
G75*
G03X128280518Y-72988000I-3017820J-1179136D01*
G01*
X134315820Y-72988864D02*
G75*
G02X134315482Y-75348000I-3017820J-1179136D01*
G01*
X131298000Y-77368000D02*
X131298000Y-70968000D01*
X131338000Y-77368000D02*
X131338000Y-70968000D01*
X131378000Y-77368000D02*
X131378000Y-70968000D01*
X131418000Y-77366000D02*
X131418000Y-70970000D01*
X131458000Y-77365000D02*
X131458000Y-70971000D01*
X131498000Y-77362000D02*
X131498000Y-70974000D01*
X131538000Y-77360000D02*
X131538000Y-70976000D01*
X131578000Y-77356000D02*
X131578000Y-75148000D01*
X131578000Y-73188000D02*
X131578000Y-70980000D01*
X131618000Y-77353000D02*
X131618000Y-75148000D01*
X131618000Y-73188000D02*
X131618000Y-70983000D01*
X131658000Y-77348000D02*
X131658000Y-75148000D01*
X131658000Y-73188000D02*
X131658000Y-70988000D01*
X131698000Y-77344000D02*
X131698000Y-75148000D01*
X131698000Y-73188000D02*
X131698000Y-70992000D01*
X131738000Y-77338000D02*
X131738000Y-75148000D01*
X131738000Y-73188000D02*
X131738000Y-70998000D01*
X131778000Y-77333000D02*
X131778000Y-75148000D01*
X131778000Y-73188000D02*
X131778000Y-71003000D01*
X131818000Y-77326000D02*
X131818000Y-75148000D01*
X131818000Y-73188000D02*
X131818000Y-71010000D01*
X131858000Y-77320000D02*
X131858000Y-75148000D01*
X131858000Y-73188000D02*
X131858000Y-71016000D01*
X131898000Y-77312000D02*
X131898000Y-75148000D01*
X131898000Y-73188000D02*
X131898000Y-71024000D01*
X131938000Y-77305000D02*
X131938000Y-75148000D01*
X131938000Y-73188000D02*
X131938000Y-71031000D01*
X131978000Y-77296000D02*
X131978000Y-75148000D01*
X131978000Y-73188000D02*
X131978000Y-71040000D01*
X132019000Y-77287000D02*
X132019000Y-75148000D01*
X132019000Y-73188000D02*
X132019000Y-71049000D01*
X132059000Y-77278000D02*
X132059000Y-75148000D01*
X132059000Y-73188000D02*
X132059000Y-71058000D01*
X132099000Y-77268000D02*
X132099000Y-75148000D01*
X132099000Y-73188000D02*
X132099000Y-71068000D01*
X132139000Y-77258000D02*
X132139000Y-75148000D01*
X132139000Y-73188000D02*
X132139000Y-71078000D01*
X132179000Y-77247000D02*
X132179000Y-75148000D01*
X132179000Y-73188000D02*
X132179000Y-71089000D01*
X132219000Y-77235000D02*
X132219000Y-75148000D01*
X132219000Y-73188000D02*
X132219000Y-71101000D01*
X132259000Y-77223000D02*
X132259000Y-75148000D01*
X132259000Y-73188000D02*
X132259000Y-71113000D01*
X132299000Y-77210000D02*
X132299000Y-75148000D01*
X132299000Y-73188000D02*
X132299000Y-71126000D01*
X132339000Y-77197000D02*
X132339000Y-75148000D01*
X132339000Y-73188000D02*
X132339000Y-71139000D01*
X132379000Y-77183000D02*
X132379000Y-75148000D01*
X132379000Y-73188000D02*
X132379000Y-71153000D01*
X132419000Y-77169000D02*
X132419000Y-75148000D01*
X132419000Y-73188000D02*
X132419000Y-71167000D01*
X132459000Y-77154000D02*
X132459000Y-75148000D01*
X132459000Y-73188000D02*
X132459000Y-71182000D01*
X132499000Y-77138000D02*
X132499000Y-75148000D01*
X132499000Y-73188000D02*
X132499000Y-71198000D01*
X132539000Y-77122000D02*
X132539000Y-75148000D01*
X132539000Y-73188000D02*
X132539000Y-71214000D01*
X132579000Y-77105000D02*
X132579000Y-75148000D01*
X132579000Y-73188000D02*
X132579000Y-71231000D01*
X132619000Y-77087000D02*
X132619000Y-75148000D01*
X132619000Y-73188000D02*
X132619000Y-71249000D01*
X132659000Y-77069000D02*
X132659000Y-75148000D01*
X132659000Y-73188000D02*
X132659000Y-71267000D01*
X132699000Y-77050000D02*
X132699000Y-75148000D01*
X132699000Y-73188000D02*
X132699000Y-71286000D01*
X132739000Y-77031000D02*
X132739000Y-75148000D01*
X132739000Y-73188000D02*
X132739000Y-71305000D01*
X132779000Y-77011000D02*
X132779000Y-75148000D01*
X132779000Y-73188000D02*
X132779000Y-71325000D01*
X132819000Y-76990000D02*
X132819000Y-75148000D01*
X132819000Y-73188000D02*
X132819000Y-71346000D01*
X132859000Y-76968000D02*
X132859000Y-75148000D01*
X132859000Y-73188000D02*
X132859000Y-71368000D01*
X132899000Y-76946000D02*
X132899000Y-75148000D01*
X132899000Y-73188000D02*
X132899000Y-71390000D01*
X132939000Y-76923000D02*
X132939000Y-75148000D01*
X132939000Y-73188000D02*
X132939000Y-71413000D01*
X132979000Y-76899000D02*
X132979000Y-75148000D01*
X132979000Y-73188000D02*
X132979000Y-71437000D01*
X133019000Y-76874000D02*
X133019000Y-75148000D01*
X133019000Y-73188000D02*
X133019000Y-71462000D01*
X133059000Y-76849000D02*
X133059000Y-75148000D01*
X133059000Y-73188000D02*
X133059000Y-71487000D01*
X133099000Y-76822000D02*
X133099000Y-75148000D01*
X133099000Y-73188000D02*
X133099000Y-71514000D01*
X133139000Y-76795000D02*
X133139000Y-75148000D01*
X133139000Y-73188000D02*
X133139000Y-71541000D01*
X133179000Y-76767000D02*
X133179000Y-75148000D01*
X133179000Y-73188000D02*
X133179000Y-71569000D01*
X133219000Y-76738000D02*
X133219000Y-75148000D01*
X133219000Y-73188000D02*
X133219000Y-71598000D01*
X133259000Y-76708000D02*
X133259000Y-75148000D01*
X133259000Y-73188000D02*
X133259000Y-71628000D01*
X133299000Y-76678000D02*
X133299000Y-75148000D01*
X133299000Y-73188000D02*
X133299000Y-71658000D01*
X133339000Y-76646000D02*
X133339000Y-75148000D01*
X133339000Y-73188000D02*
X133339000Y-71690000D01*
X133379000Y-76613000D02*
X133379000Y-75148000D01*
X133379000Y-73188000D02*
X133379000Y-71723000D01*
X133419000Y-76579000D02*
X133419000Y-75148000D01*
X133419000Y-73188000D02*
X133419000Y-71757000D01*
X133459000Y-76543000D02*
X133459000Y-75148000D01*
X133459000Y-73188000D02*
X133459000Y-71793000D01*
X133499000Y-76507000D02*
X133499000Y-75148000D01*
X133499000Y-73188000D02*
X133499000Y-71829000D01*
X133539000Y-76469000D02*
X133539000Y-71867000D01*
X133579000Y-76430000D02*
X133579000Y-71906000D01*
X133619000Y-76390000D02*
X133619000Y-71946000D01*
X133659000Y-76348000D02*
X133659000Y-71988000D01*
X133699000Y-76305000D02*
X133699000Y-72031000D01*
X133739000Y-76260000D02*
X133739000Y-72076000D01*
X133779000Y-76213000D02*
X133779000Y-72123000D01*
X133819000Y-76165000D02*
X133819000Y-72171000D01*
X133859000Y-76114000D02*
X133859000Y-72222000D01*
X133899000Y-76062000D02*
X133899000Y-72274000D01*
X133939000Y-76007000D02*
X133939000Y-72329000D01*
X133979000Y-75949000D02*
X133979000Y-72387000D01*
X134019000Y-75889000D02*
X134019000Y-72447000D01*
X134059000Y-75826000D02*
X134059000Y-72510000D01*
X134099000Y-75759000D02*
X134099000Y-72577000D01*
X134139000Y-75688000D02*
X134139000Y-72648000D01*
X134179000Y-75613000D02*
X134179000Y-72723000D01*
X134219000Y-75532000D02*
X134219000Y-72804000D01*
X134259000Y-75446000D02*
X134259000Y-72890000D01*
X134299000Y-75352000D02*
X134299000Y-72984000D01*
X134339000Y-75249000D02*
X134339000Y-73087000D01*
X134379000Y-75134000D02*
X134379000Y-73202000D01*
X134419000Y-75002000D02*
X134419000Y-73334000D01*
X134459000Y-74844000D02*
X134459000Y-73492000D01*
X134499000Y-74636000D02*
X134499000Y-73700000D01*
X127848000Y-74168000D02*
X129048000Y-74168000D01*
X128448000Y-74818000D02*
X128448000Y-73518000D01*
G04 #@! TO.C,J1*
X123638000Y-68386000D02*
X124968000Y-68386000D01*
X123638000Y-67056000D02*
X123638000Y-68386000D01*
X126298000Y-65786000D02*
X123638000Y-65786000D01*
X126298000Y-58106000D02*
X126298000Y-65786000D01*
X123638000Y-58106000D02*
X126298000Y-58106000D01*
X123638000Y-65786000D02*
X123638000Y-58106000D01*
D13*
G04 #@! TO.C,J2*
X127826000Y-69810000D02*
X127826000Y-49810000D01*
X135826000Y-69810000D02*
X127826000Y-69810000D01*
X135826000Y-49810000D02*
X135826000Y-69810000D01*
X127826000Y-49810000D02*
X135826000Y-49810000D01*
G04 #@! TO.C,C1*
X131464666Y-78985142D02*
X131512285Y-79032761D01*
X131655142Y-79080380D01*
X131750380Y-79080380D01*
X131893238Y-79032761D01*
X131988476Y-78937523D01*
X132036095Y-78842285D01*
X132083714Y-78651809D01*
X132083714Y-78508952D01*
X132036095Y-78318476D01*
X131988476Y-78223238D01*
X131893238Y-78128000D01*
X131750380Y-78080380D01*
X131655142Y-78080380D01*
X131512285Y-78128000D01*
X131464666Y-78175619D01*
X130512285Y-79080380D02*
X131083714Y-79080380D01*
X130798000Y-79080380D02*
X130798000Y-78080380D01*
X130893238Y-78223238D01*
X130988476Y-78318476D01*
X131083714Y-78366095D01*
G04 #@! TO.C,J1*
X125301333Y-68838380D02*
X125301333Y-69552666D01*
X125348952Y-69695523D01*
X125444190Y-69790761D01*
X125587047Y-69838380D01*
X125682285Y-69838380D01*
X124301333Y-69838380D02*
X124872761Y-69838380D01*
X124587047Y-69838380D02*
X124587047Y-68838380D01*
X124682285Y-68981238D01*
X124777523Y-69076476D01*
X124872761Y-69124095D01*
G04 #@! TD*
M02*
