G04 #@! TF.GenerationSoftware,KiCad,Pcbnew,(5.0.2)-1*
G04 #@! TF.CreationDate,2019-06-08T19:55:36+01:00*
G04 #@! TF.ProjectId,ultrasound_adapter,756c7472-6173-46f7-956e-645f61646170,rev?*
G04 #@! TF.SameCoordinates,Original*
G04 #@! TF.FileFunction,Copper,L1,Top*
G04 #@! TF.FilePolarity,Positive*
%FSLAX46Y46*%
G04 Gerber Fmt 4.6, Leading zero omitted, Abs format (unit mm)*
G04 Created by KiCad (PCBNEW (5.0.2)-1) date 08/06/2019 19:55:36*
%MOMM*%
%LPD*%
G01*
G04 APERTURE LIST*
G04 #@! TA.AperFunction,ComponentPad*
%ADD10O,1.700000X1.700000*%
G04 #@! TD*
G04 #@! TA.AperFunction,ComponentPad*
%ADD11R,1.700000X1.700000*%
G04 #@! TD*
G04 #@! TA.AperFunction,ComponentPad*
%ADD12C,1.524000*%
G04 #@! TD*
G04 #@! TA.AperFunction,ComponentPad*
%ADD13C,1.600000*%
G04 #@! TD*
G04 #@! TA.AperFunction,ComponentPad*
%ADD14R,1.600000X1.600000*%
G04 #@! TD*
G04 #@! TA.AperFunction,ComponentPad*
%ADD15C,3.800000*%
G04 #@! TD*
G04 #@! TA.AperFunction,Conductor*
%ADD16C,0.750000*%
G04 #@! TD*
G04 #@! TA.AperFunction,Conductor*
%ADD17C,0.254000*%
G04 #@! TD*
G04 APERTURE END LIST*
D10*
G04 #@! TO.P,J1,4*
G04 #@! TO.N,GND*
X125050000Y-49825000D03*
G04 #@! TO.P,J1,3*
G04 #@! TO.N,Echo*
X125050000Y-52365000D03*
G04 #@! TO.P,J1,2*
G04 #@! TO.N,Trig*
X125050000Y-54905000D03*
D11*
G04 #@! TO.P,J1,1*
G04 #@! TO.N,VCC*
X125050000Y-57445000D03*
G04 #@! TD*
D12*
G04 #@! TO.P,J2,1*
G04 #@! TO.N,VCC*
X137200000Y-60975000D03*
G04 #@! TO.P,J2,2*
G04 #@! TO.N,Trig*
X137200000Y-55975000D03*
G04 #@! TO.P,J2,3*
G04 #@! TO.N,Echo*
X137200000Y-50975000D03*
G04 #@! TO.P,J2,4*
G04 #@! TO.N,GND*
X137200000Y-45975000D03*
G04 #@! TD*
D13*
G04 #@! TO.P,C1,2*
G04 #@! TO.N,GND*
X134366000Y-52364000D03*
D14*
G04 #@! TO.P,C1,1*
G04 #@! TO.N,VCC*
X134366000Y-54864000D03*
G04 #@! TD*
D15*
G04 #@! TO.P,H1,1*
G04 #@! TO.N,GND*
X130048000Y-60960000D03*
G04 #@! TD*
G04 #@! TO.P,H2,1*
G04 #@! TO.N,GND*
X130048000Y-45974000D03*
G04 #@! TD*
D16*
G04 #@! TO.N,VCC*
X136122370Y-60975000D02*
X137200000Y-60975000D01*
X134366000Y-59218630D02*
X136122370Y-60975000D01*
X134366000Y-54864000D02*
X134366000Y-59218630D01*
G04 #@! TD*
D17*
G04 #@! TO.N,GND*
G36*
X128424775Y-44171170D02*
X130048000Y-45794395D01*
X131671225Y-44171170D01*
X131635817Y-44110000D01*
X140565000Y-44110000D01*
X140565001Y-62840000D01*
X131626555Y-62840000D01*
X131671225Y-62762830D01*
X130048000Y-61139605D01*
X128424775Y-62762830D01*
X128469445Y-62840000D01*
X123910000Y-62840000D01*
X123910000Y-60480843D01*
X127508138Y-60480843D01*
X127518108Y-61489279D01*
X127884839Y-62374647D01*
X128245170Y-62583225D01*
X129868395Y-60960000D01*
X130227605Y-60960000D01*
X131850830Y-62583225D01*
X132211161Y-62374647D01*
X132587862Y-61439157D01*
X132577892Y-60430721D01*
X132211161Y-59545353D01*
X131850830Y-59336775D01*
X130227605Y-60960000D01*
X129868395Y-60960000D01*
X128245170Y-59336775D01*
X127884839Y-59545353D01*
X127508138Y-60480843D01*
X123910000Y-60480843D01*
X123910000Y-59157170D01*
X128424775Y-59157170D01*
X130048000Y-60780395D01*
X131671225Y-59157170D01*
X131462647Y-58796839D01*
X130527157Y-58420138D01*
X129518721Y-58430108D01*
X128633353Y-58796839D01*
X128424775Y-59157170D01*
X123910000Y-59157170D01*
X123910000Y-58864936D01*
X123952235Y-58893157D01*
X124200000Y-58942440D01*
X125900000Y-58942440D01*
X126147765Y-58893157D01*
X126357809Y-58752809D01*
X126498157Y-58542765D01*
X126547440Y-58295000D01*
X126547440Y-56595000D01*
X126498157Y-56347235D01*
X126357809Y-56137191D01*
X126147765Y-55996843D01*
X126102381Y-55987816D01*
X126120625Y-55975625D01*
X126448839Y-55484418D01*
X126564092Y-54905000D01*
X126448839Y-54325582D01*
X126274056Y-54064000D01*
X132918560Y-54064000D01*
X132918560Y-55664000D01*
X132967843Y-55911765D01*
X133108191Y-56121809D01*
X133318235Y-56262157D01*
X133356000Y-56269669D01*
X133356001Y-59119155D01*
X133336214Y-59218630D01*
X133414602Y-59612712D01*
X133581482Y-59862467D01*
X133581485Y-59862470D01*
X133637832Y-59946799D01*
X133722161Y-60003146D01*
X135337852Y-61618837D01*
X135394201Y-61703169D01*
X135728288Y-61926399D01*
X136022894Y-61985000D01*
X136022898Y-61985000D01*
X136122369Y-62004786D01*
X136221840Y-61985000D01*
X136234343Y-61985000D01*
X136408663Y-62159320D01*
X136922119Y-62372000D01*
X137477881Y-62372000D01*
X137991337Y-62159320D01*
X138384320Y-61766337D01*
X138597000Y-61252881D01*
X138597000Y-60697119D01*
X138384320Y-60183663D01*
X137991337Y-59790680D01*
X137477881Y-59578000D01*
X136922119Y-59578000D01*
X136408663Y-59790680D01*
X136387534Y-59811809D01*
X135376000Y-58800275D01*
X135376000Y-56269669D01*
X135413765Y-56262157D01*
X135623809Y-56121809D01*
X135764157Y-55911765D01*
X135803000Y-55716486D01*
X135803000Y-56252881D01*
X136015680Y-56766337D01*
X136408663Y-57159320D01*
X136922119Y-57372000D01*
X137477881Y-57372000D01*
X137991337Y-57159320D01*
X138384320Y-56766337D01*
X138597000Y-56252881D01*
X138597000Y-55697119D01*
X138384320Y-55183663D01*
X137991337Y-54790680D01*
X137477881Y-54578000D01*
X136922119Y-54578000D01*
X136408663Y-54790680D01*
X136015680Y-55183663D01*
X135810411Y-55679227D01*
X135813440Y-55664000D01*
X135813440Y-54064000D01*
X135764157Y-53816235D01*
X135623809Y-53606191D01*
X135413765Y-53465843D01*
X135179813Y-53419307D01*
X135194139Y-53371745D01*
X134366000Y-52543605D01*
X133537861Y-53371745D01*
X133552187Y-53419307D01*
X133318235Y-53465843D01*
X133108191Y-53606191D01*
X132967843Y-53816235D01*
X132918560Y-54064000D01*
X126274056Y-54064000D01*
X126120625Y-53834375D01*
X125822239Y-53635000D01*
X126120625Y-53435625D01*
X126448839Y-52944418D01*
X126564092Y-52365000D01*
X126520774Y-52147223D01*
X132919035Y-52147223D01*
X132946222Y-52717454D01*
X133112136Y-53118005D01*
X133358255Y-53192139D01*
X134186395Y-52364000D01*
X134545605Y-52364000D01*
X135373745Y-53192139D01*
X135619864Y-53118005D01*
X135812965Y-52580777D01*
X135785778Y-52010546D01*
X135619864Y-51609995D01*
X135373745Y-51535861D01*
X134545605Y-52364000D01*
X134186395Y-52364000D01*
X133358255Y-51535861D01*
X133112136Y-51609995D01*
X132919035Y-52147223D01*
X126520774Y-52147223D01*
X126448839Y-51785582D01*
X126161972Y-51356255D01*
X133537861Y-51356255D01*
X134366000Y-52184395D01*
X135194139Y-51356255D01*
X135120005Y-51110136D01*
X134582777Y-50917035D01*
X134012546Y-50944222D01*
X133611995Y-51110136D01*
X133537861Y-51356255D01*
X126161972Y-51356255D01*
X126120625Y-51294375D01*
X125801522Y-51081157D01*
X125931358Y-51020183D01*
X126225777Y-50697119D01*
X135803000Y-50697119D01*
X135803000Y-51252881D01*
X136015680Y-51766337D01*
X136408663Y-52159320D01*
X136922119Y-52372000D01*
X137477881Y-52372000D01*
X137991337Y-52159320D01*
X138384320Y-51766337D01*
X138597000Y-51252881D01*
X138597000Y-50697119D01*
X138384320Y-50183663D01*
X137991337Y-49790680D01*
X137477881Y-49578000D01*
X136922119Y-49578000D01*
X136408663Y-49790680D01*
X136015680Y-50183663D01*
X135803000Y-50697119D01*
X126225777Y-50697119D01*
X126321645Y-50591924D01*
X126491476Y-50181890D01*
X126370155Y-49952000D01*
X125177000Y-49952000D01*
X125177000Y-49972000D01*
X124923000Y-49972000D01*
X124923000Y-49952000D01*
X124903000Y-49952000D01*
X124903000Y-49698000D01*
X124923000Y-49698000D01*
X124923000Y-48504181D01*
X125177000Y-48504181D01*
X125177000Y-49698000D01*
X126370155Y-49698000D01*
X126491476Y-49468110D01*
X126321645Y-49058076D01*
X125931358Y-48629817D01*
X125406892Y-48383514D01*
X125177000Y-48504181D01*
X124923000Y-48504181D01*
X124693108Y-48383514D01*
X124168642Y-48629817D01*
X123910000Y-48913623D01*
X123910000Y-47776830D01*
X128424775Y-47776830D01*
X128633353Y-48137161D01*
X129568843Y-48513862D01*
X130577279Y-48503892D01*
X131462647Y-48137161D01*
X131671225Y-47776830D01*
X130048000Y-46153605D01*
X128424775Y-47776830D01*
X123910000Y-47776830D01*
X123910000Y-45494843D01*
X127508138Y-45494843D01*
X127518108Y-46503279D01*
X127884839Y-47388647D01*
X128245170Y-47597225D01*
X129868395Y-45974000D01*
X130227605Y-45974000D01*
X131850830Y-47597225D01*
X132211161Y-47388647D01*
X132385695Y-46955213D01*
X136399392Y-46955213D01*
X136468857Y-47197397D01*
X136992302Y-47384144D01*
X137547368Y-47356362D01*
X137931143Y-47197397D01*
X138000608Y-46955213D01*
X137200000Y-46154605D01*
X136399392Y-46955213D01*
X132385695Y-46955213D01*
X132587862Y-46453157D01*
X132581082Y-45767302D01*
X135790856Y-45767302D01*
X135818638Y-46322368D01*
X135977603Y-46706143D01*
X136219787Y-46775608D01*
X137020395Y-45975000D01*
X137379605Y-45975000D01*
X138180213Y-46775608D01*
X138422397Y-46706143D01*
X138609144Y-46182698D01*
X138581362Y-45627632D01*
X138422397Y-45243857D01*
X138180213Y-45174392D01*
X137379605Y-45975000D01*
X137020395Y-45975000D01*
X136219787Y-45174392D01*
X135977603Y-45243857D01*
X135790856Y-45767302D01*
X132581082Y-45767302D01*
X132577892Y-45444721D01*
X132391524Y-44994787D01*
X136399392Y-44994787D01*
X137200000Y-45795395D01*
X138000608Y-44994787D01*
X137931143Y-44752603D01*
X137407698Y-44565856D01*
X136852632Y-44593638D01*
X136468857Y-44752603D01*
X136399392Y-44994787D01*
X132391524Y-44994787D01*
X132211161Y-44559353D01*
X131850830Y-44350775D01*
X130227605Y-45974000D01*
X129868395Y-45974000D01*
X128245170Y-44350775D01*
X127884839Y-44559353D01*
X127508138Y-45494843D01*
X123910000Y-45494843D01*
X123910000Y-44110000D01*
X128460183Y-44110000D01*
X128424775Y-44171170D01*
X128424775Y-44171170D01*
G37*
X128424775Y-44171170D02*
X130048000Y-45794395D01*
X131671225Y-44171170D01*
X131635817Y-44110000D01*
X140565000Y-44110000D01*
X140565001Y-62840000D01*
X131626555Y-62840000D01*
X131671225Y-62762830D01*
X130048000Y-61139605D01*
X128424775Y-62762830D01*
X128469445Y-62840000D01*
X123910000Y-62840000D01*
X123910000Y-60480843D01*
X127508138Y-60480843D01*
X127518108Y-61489279D01*
X127884839Y-62374647D01*
X128245170Y-62583225D01*
X129868395Y-60960000D01*
X130227605Y-60960000D01*
X131850830Y-62583225D01*
X132211161Y-62374647D01*
X132587862Y-61439157D01*
X132577892Y-60430721D01*
X132211161Y-59545353D01*
X131850830Y-59336775D01*
X130227605Y-60960000D01*
X129868395Y-60960000D01*
X128245170Y-59336775D01*
X127884839Y-59545353D01*
X127508138Y-60480843D01*
X123910000Y-60480843D01*
X123910000Y-59157170D01*
X128424775Y-59157170D01*
X130048000Y-60780395D01*
X131671225Y-59157170D01*
X131462647Y-58796839D01*
X130527157Y-58420138D01*
X129518721Y-58430108D01*
X128633353Y-58796839D01*
X128424775Y-59157170D01*
X123910000Y-59157170D01*
X123910000Y-58864936D01*
X123952235Y-58893157D01*
X124200000Y-58942440D01*
X125900000Y-58942440D01*
X126147765Y-58893157D01*
X126357809Y-58752809D01*
X126498157Y-58542765D01*
X126547440Y-58295000D01*
X126547440Y-56595000D01*
X126498157Y-56347235D01*
X126357809Y-56137191D01*
X126147765Y-55996843D01*
X126102381Y-55987816D01*
X126120625Y-55975625D01*
X126448839Y-55484418D01*
X126564092Y-54905000D01*
X126448839Y-54325582D01*
X126274056Y-54064000D01*
X132918560Y-54064000D01*
X132918560Y-55664000D01*
X132967843Y-55911765D01*
X133108191Y-56121809D01*
X133318235Y-56262157D01*
X133356000Y-56269669D01*
X133356001Y-59119155D01*
X133336214Y-59218630D01*
X133414602Y-59612712D01*
X133581482Y-59862467D01*
X133581485Y-59862470D01*
X133637832Y-59946799D01*
X133722161Y-60003146D01*
X135337852Y-61618837D01*
X135394201Y-61703169D01*
X135728288Y-61926399D01*
X136022894Y-61985000D01*
X136022898Y-61985000D01*
X136122369Y-62004786D01*
X136221840Y-61985000D01*
X136234343Y-61985000D01*
X136408663Y-62159320D01*
X136922119Y-62372000D01*
X137477881Y-62372000D01*
X137991337Y-62159320D01*
X138384320Y-61766337D01*
X138597000Y-61252881D01*
X138597000Y-60697119D01*
X138384320Y-60183663D01*
X137991337Y-59790680D01*
X137477881Y-59578000D01*
X136922119Y-59578000D01*
X136408663Y-59790680D01*
X136387534Y-59811809D01*
X135376000Y-58800275D01*
X135376000Y-56269669D01*
X135413765Y-56262157D01*
X135623809Y-56121809D01*
X135764157Y-55911765D01*
X135803000Y-55716486D01*
X135803000Y-56252881D01*
X136015680Y-56766337D01*
X136408663Y-57159320D01*
X136922119Y-57372000D01*
X137477881Y-57372000D01*
X137991337Y-57159320D01*
X138384320Y-56766337D01*
X138597000Y-56252881D01*
X138597000Y-55697119D01*
X138384320Y-55183663D01*
X137991337Y-54790680D01*
X137477881Y-54578000D01*
X136922119Y-54578000D01*
X136408663Y-54790680D01*
X136015680Y-55183663D01*
X135810411Y-55679227D01*
X135813440Y-55664000D01*
X135813440Y-54064000D01*
X135764157Y-53816235D01*
X135623809Y-53606191D01*
X135413765Y-53465843D01*
X135179813Y-53419307D01*
X135194139Y-53371745D01*
X134366000Y-52543605D01*
X133537861Y-53371745D01*
X133552187Y-53419307D01*
X133318235Y-53465843D01*
X133108191Y-53606191D01*
X132967843Y-53816235D01*
X132918560Y-54064000D01*
X126274056Y-54064000D01*
X126120625Y-53834375D01*
X125822239Y-53635000D01*
X126120625Y-53435625D01*
X126448839Y-52944418D01*
X126564092Y-52365000D01*
X126520774Y-52147223D01*
X132919035Y-52147223D01*
X132946222Y-52717454D01*
X133112136Y-53118005D01*
X133358255Y-53192139D01*
X134186395Y-52364000D01*
X134545605Y-52364000D01*
X135373745Y-53192139D01*
X135619864Y-53118005D01*
X135812965Y-52580777D01*
X135785778Y-52010546D01*
X135619864Y-51609995D01*
X135373745Y-51535861D01*
X134545605Y-52364000D01*
X134186395Y-52364000D01*
X133358255Y-51535861D01*
X133112136Y-51609995D01*
X132919035Y-52147223D01*
X126520774Y-52147223D01*
X126448839Y-51785582D01*
X126161972Y-51356255D01*
X133537861Y-51356255D01*
X134366000Y-52184395D01*
X135194139Y-51356255D01*
X135120005Y-51110136D01*
X134582777Y-50917035D01*
X134012546Y-50944222D01*
X133611995Y-51110136D01*
X133537861Y-51356255D01*
X126161972Y-51356255D01*
X126120625Y-51294375D01*
X125801522Y-51081157D01*
X125931358Y-51020183D01*
X126225777Y-50697119D01*
X135803000Y-50697119D01*
X135803000Y-51252881D01*
X136015680Y-51766337D01*
X136408663Y-52159320D01*
X136922119Y-52372000D01*
X137477881Y-52372000D01*
X137991337Y-52159320D01*
X138384320Y-51766337D01*
X138597000Y-51252881D01*
X138597000Y-50697119D01*
X138384320Y-50183663D01*
X137991337Y-49790680D01*
X137477881Y-49578000D01*
X136922119Y-49578000D01*
X136408663Y-49790680D01*
X136015680Y-50183663D01*
X135803000Y-50697119D01*
X126225777Y-50697119D01*
X126321645Y-50591924D01*
X126491476Y-50181890D01*
X126370155Y-49952000D01*
X125177000Y-49952000D01*
X125177000Y-49972000D01*
X124923000Y-49972000D01*
X124923000Y-49952000D01*
X124903000Y-49952000D01*
X124903000Y-49698000D01*
X124923000Y-49698000D01*
X124923000Y-48504181D01*
X125177000Y-48504181D01*
X125177000Y-49698000D01*
X126370155Y-49698000D01*
X126491476Y-49468110D01*
X126321645Y-49058076D01*
X125931358Y-48629817D01*
X125406892Y-48383514D01*
X125177000Y-48504181D01*
X124923000Y-48504181D01*
X124693108Y-48383514D01*
X124168642Y-48629817D01*
X123910000Y-48913623D01*
X123910000Y-47776830D01*
X128424775Y-47776830D01*
X128633353Y-48137161D01*
X129568843Y-48513862D01*
X130577279Y-48503892D01*
X131462647Y-48137161D01*
X131671225Y-47776830D01*
X130048000Y-46153605D01*
X128424775Y-47776830D01*
X123910000Y-47776830D01*
X123910000Y-45494843D01*
X127508138Y-45494843D01*
X127518108Y-46503279D01*
X127884839Y-47388647D01*
X128245170Y-47597225D01*
X129868395Y-45974000D01*
X130227605Y-45974000D01*
X131850830Y-47597225D01*
X132211161Y-47388647D01*
X132385695Y-46955213D01*
X136399392Y-46955213D01*
X136468857Y-47197397D01*
X136992302Y-47384144D01*
X137547368Y-47356362D01*
X137931143Y-47197397D01*
X138000608Y-46955213D01*
X137200000Y-46154605D01*
X136399392Y-46955213D01*
X132385695Y-46955213D01*
X132587862Y-46453157D01*
X132581082Y-45767302D01*
X135790856Y-45767302D01*
X135818638Y-46322368D01*
X135977603Y-46706143D01*
X136219787Y-46775608D01*
X137020395Y-45975000D01*
X137379605Y-45975000D01*
X138180213Y-46775608D01*
X138422397Y-46706143D01*
X138609144Y-46182698D01*
X138581362Y-45627632D01*
X138422397Y-45243857D01*
X138180213Y-45174392D01*
X137379605Y-45975000D01*
X137020395Y-45975000D01*
X136219787Y-45174392D01*
X135977603Y-45243857D01*
X135790856Y-45767302D01*
X132581082Y-45767302D01*
X132577892Y-45444721D01*
X132391524Y-44994787D01*
X136399392Y-44994787D01*
X137200000Y-45795395D01*
X138000608Y-44994787D01*
X137931143Y-44752603D01*
X137407698Y-44565856D01*
X136852632Y-44593638D01*
X136468857Y-44752603D01*
X136399392Y-44994787D01*
X132391524Y-44994787D01*
X132211161Y-44559353D01*
X131850830Y-44350775D01*
X130227605Y-45974000D01*
X129868395Y-45974000D01*
X128245170Y-44350775D01*
X127884839Y-44559353D01*
X127508138Y-45494843D01*
X123910000Y-45494843D01*
X123910000Y-44110000D01*
X128460183Y-44110000D01*
X128424775Y-44171170D01*
G04 #@! TD*
M02*
