G04 #@! TF.GenerationSoftware,KiCad,Pcbnew,(5.0.2)-1*
G04 #@! TF.CreationDate,2019-05-29T15:32:01+01:00*
G04 #@! TF.ProjectId,ultrasound_adapter,756c7472-6173-46f7-956e-645f61646170,rev?*
G04 #@! TF.SameCoordinates,Original*
G04 #@! TF.FileFunction,Copper,L2,Bot*
G04 #@! TF.FilePolarity,Positive*
%FSLAX46Y46*%
G04 Gerber Fmt 4.6, Leading zero omitted, Abs format (unit mm)*
G04 Created by KiCad (PCBNEW (5.0.2)-1) date 29/05/2019 15:32:01*
%MOMM*%
%LPD*%
G01*
G04 APERTURE LIST*
G04 #@! TA.AperFunction,ComponentPad*
%ADD10O,1.700000X1.700000*%
G04 #@! TD*
G04 #@! TA.AperFunction,ComponentPad*
%ADD11R,1.700000X1.700000*%
G04 #@! TD*
G04 #@! TA.AperFunction,ComponentPad*
%ADD12C,1.524000*%
G04 #@! TD*
G04 #@! TA.AperFunction,Conductor*
%ADD13C,0.250000*%
G04 #@! TD*
G04 #@! TA.AperFunction,Conductor*
%ADD14C,0.254000*%
G04 #@! TD*
G04 APERTURE END LIST*
D10*
G04 #@! TO.P,J1,4*
G04 #@! TO.N,GND*
X125025000Y-57445000D03*
G04 #@! TO.P,J1,3*
G04 #@! TO.N,Echo*
X125025000Y-54905000D03*
G04 #@! TO.P,J1,2*
G04 #@! TO.N,Trig*
X125025000Y-52365000D03*
D11*
G04 #@! TO.P,J1,1*
G04 #@! TO.N,VCC*
X125025000Y-49825000D03*
G04 #@! TD*
D12*
G04 #@! TO.P,J2,1*
G04 #@! TO.N,VCC*
X137200000Y-45975000D03*
G04 #@! TO.P,J2,2*
G04 #@! TO.N,Trig*
X137200000Y-50975000D03*
G04 #@! TO.P,J2,3*
G04 #@! TO.N,Echo*
X137200000Y-55975000D03*
G04 #@! TO.P,J2,4*
G04 #@! TO.N,GND*
X137200000Y-60975000D03*
G04 #@! TD*
D13*
G04 #@! TO.N,GND*
X125025000Y-58677081D02*
X125025000Y-57475000D01*
X127322919Y-60975000D02*
X125025000Y-58677081D01*
X137200000Y-60975000D02*
X127322919Y-60975000D01*
G04 #@! TO.N,VCC*
X136122370Y-45975000D02*
X137200000Y-45975000D01*
X127805000Y-45975000D02*
X136122370Y-45975000D01*
X125025000Y-48755000D02*
X127805000Y-45975000D01*
X125025000Y-49855000D02*
X125025000Y-48755000D01*
G04 #@! TO.N,Echo*
X136160000Y-54935000D02*
X137200000Y-55975000D01*
X125025000Y-54935000D02*
X136160000Y-54935000D01*
G04 #@! TO.N,Trig*
X135780000Y-52395000D02*
X137200000Y-50975000D01*
X125025000Y-52395000D02*
X135780000Y-52395000D01*
G04 #@! TD*
D14*
G04 #@! TO.N,GND*
G36*
X140565001Y-62840000D02*
X123910000Y-62840000D01*
X123910000Y-61955213D01*
X136399392Y-61955213D01*
X136468857Y-62197397D01*
X136992302Y-62384144D01*
X137547368Y-62356362D01*
X137931143Y-62197397D01*
X138000608Y-61955213D01*
X137200000Y-61154605D01*
X136399392Y-61955213D01*
X123910000Y-61955213D01*
X123910000Y-60767302D01*
X135790856Y-60767302D01*
X135818638Y-61322368D01*
X135977603Y-61706143D01*
X136219787Y-61775608D01*
X137020395Y-60975000D01*
X137379605Y-60975000D01*
X138180213Y-61775608D01*
X138422397Y-61706143D01*
X138609144Y-61182698D01*
X138581362Y-60627632D01*
X138422397Y-60243857D01*
X138180213Y-60174392D01*
X137379605Y-60975000D01*
X137020395Y-60975000D01*
X136219787Y-60174392D01*
X135977603Y-60243857D01*
X135790856Y-60767302D01*
X123910000Y-60767302D01*
X123910000Y-59994787D01*
X136399392Y-59994787D01*
X137200000Y-60795395D01*
X138000608Y-59994787D01*
X137931143Y-59752603D01*
X137407698Y-59565856D01*
X136852632Y-59593638D01*
X136468857Y-59752603D01*
X136399392Y-59994787D01*
X123910000Y-59994787D01*
X123910000Y-58383809D01*
X124143642Y-58640183D01*
X124668108Y-58886486D01*
X124898000Y-58765819D01*
X124898000Y-57572000D01*
X125152000Y-57572000D01*
X125152000Y-58765819D01*
X125381892Y-58886486D01*
X125906358Y-58640183D01*
X126296645Y-58211924D01*
X126466476Y-57801890D01*
X126345155Y-57572000D01*
X125152000Y-57572000D01*
X124898000Y-57572000D01*
X124878000Y-57572000D01*
X124878000Y-57318000D01*
X124898000Y-57318000D01*
X124898000Y-57298000D01*
X125152000Y-57298000D01*
X125152000Y-57318000D01*
X126345155Y-57318000D01*
X126466476Y-57088110D01*
X126296645Y-56678076D01*
X125906358Y-56249817D01*
X125776522Y-56188843D01*
X126095625Y-55975625D01*
X126283133Y-55695000D01*
X135803878Y-55695000D01*
X135803000Y-55697119D01*
X135803000Y-56252881D01*
X136015680Y-56766337D01*
X136408663Y-57159320D01*
X136922119Y-57372000D01*
X137477881Y-57372000D01*
X137991337Y-57159320D01*
X138384320Y-56766337D01*
X138597000Y-56252881D01*
X138597000Y-55697119D01*
X138384320Y-55183663D01*
X137991337Y-54790680D01*
X137477881Y-54578000D01*
X136922119Y-54578000D01*
X136890782Y-54590980D01*
X136750331Y-54450530D01*
X136707929Y-54387071D01*
X136456537Y-54219096D01*
X136234852Y-54175000D01*
X136234847Y-54175000D01*
X136160000Y-54160112D01*
X136085153Y-54175000D01*
X126323223Y-54175000D01*
X126095625Y-53834375D01*
X125797239Y-53635000D01*
X126095625Y-53435625D01*
X126283133Y-53155000D01*
X135705153Y-53155000D01*
X135780000Y-53169888D01*
X135854847Y-53155000D01*
X135854852Y-53155000D01*
X136076537Y-53110904D01*
X136327929Y-52942929D01*
X136370331Y-52879470D01*
X136890782Y-52359020D01*
X136922119Y-52372000D01*
X137477881Y-52372000D01*
X137991337Y-52159320D01*
X138384320Y-51766337D01*
X138597000Y-51252881D01*
X138597000Y-50697119D01*
X138384320Y-50183663D01*
X137991337Y-49790680D01*
X137477881Y-49578000D01*
X136922119Y-49578000D01*
X136408663Y-49790680D01*
X136015680Y-50183663D01*
X135803000Y-50697119D01*
X135803000Y-51252881D01*
X135815980Y-51284218D01*
X135465199Y-51635000D01*
X126323223Y-51635000D01*
X126095625Y-51294375D01*
X126077381Y-51282184D01*
X126122765Y-51273157D01*
X126332809Y-51132809D01*
X126473157Y-50922765D01*
X126522440Y-50675000D01*
X126522440Y-48975000D01*
X126473157Y-48727235D01*
X126334732Y-48520069D01*
X128119802Y-46735000D01*
X136002700Y-46735000D01*
X136015680Y-46766337D01*
X136408663Y-47159320D01*
X136922119Y-47372000D01*
X137477881Y-47372000D01*
X137991337Y-47159320D01*
X138384320Y-46766337D01*
X138597000Y-46252881D01*
X138597000Y-45697119D01*
X138384320Y-45183663D01*
X137991337Y-44790680D01*
X137477881Y-44578000D01*
X136922119Y-44578000D01*
X136408663Y-44790680D01*
X136015680Y-45183663D01*
X136002700Y-45215000D01*
X127879848Y-45215000D01*
X127805000Y-45200112D01*
X127730152Y-45215000D01*
X127730148Y-45215000D01*
X127556605Y-45249520D01*
X127508462Y-45259096D01*
X127321418Y-45384076D01*
X127257071Y-45427071D01*
X127214671Y-45490527D01*
X124540528Y-48164671D01*
X124477072Y-48207071D01*
X124434672Y-48270527D01*
X124434671Y-48270528D01*
X124396563Y-48327560D01*
X124175000Y-48327560D01*
X123927235Y-48376843D01*
X123910000Y-48388359D01*
X123910000Y-44110000D01*
X140565000Y-44110000D01*
X140565001Y-62840000D01*
X140565001Y-62840000D01*
G37*
X140565001Y-62840000D02*
X123910000Y-62840000D01*
X123910000Y-61955213D01*
X136399392Y-61955213D01*
X136468857Y-62197397D01*
X136992302Y-62384144D01*
X137547368Y-62356362D01*
X137931143Y-62197397D01*
X138000608Y-61955213D01*
X137200000Y-61154605D01*
X136399392Y-61955213D01*
X123910000Y-61955213D01*
X123910000Y-60767302D01*
X135790856Y-60767302D01*
X135818638Y-61322368D01*
X135977603Y-61706143D01*
X136219787Y-61775608D01*
X137020395Y-60975000D01*
X137379605Y-60975000D01*
X138180213Y-61775608D01*
X138422397Y-61706143D01*
X138609144Y-61182698D01*
X138581362Y-60627632D01*
X138422397Y-60243857D01*
X138180213Y-60174392D01*
X137379605Y-60975000D01*
X137020395Y-60975000D01*
X136219787Y-60174392D01*
X135977603Y-60243857D01*
X135790856Y-60767302D01*
X123910000Y-60767302D01*
X123910000Y-59994787D01*
X136399392Y-59994787D01*
X137200000Y-60795395D01*
X138000608Y-59994787D01*
X137931143Y-59752603D01*
X137407698Y-59565856D01*
X136852632Y-59593638D01*
X136468857Y-59752603D01*
X136399392Y-59994787D01*
X123910000Y-59994787D01*
X123910000Y-58383809D01*
X124143642Y-58640183D01*
X124668108Y-58886486D01*
X124898000Y-58765819D01*
X124898000Y-57572000D01*
X125152000Y-57572000D01*
X125152000Y-58765819D01*
X125381892Y-58886486D01*
X125906358Y-58640183D01*
X126296645Y-58211924D01*
X126466476Y-57801890D01*
X126345155Y-57572000D01*
X125152000Y-57572000D01*
X124898000Y-57572000D01*
X124878000Y-57572000D01*
X124878000Y-57318000D01*
X124898000Y-57318000D01*
X124898000Y-57298000D01*
X125152000Y-57298000D01*
X125152000Y-57318000D01*
X126345155Y-57318000D01*
X126466476Y-57088110D01*
X126296645Y-56678076D01*
X125906358Y-56249817D01*
X125776522Y-56188843D01*
X126095625Y-55975625D01*
X126283133Y-55695000D01*
X135803878Y-55695000D01*
X135803000Y-55697119D01*
X135803000Y-56252881D01*
X136015680Y-56766337D01*
X136408663Y-57159320D01*
X136922119Y-57372000D01*
X137477881Y-57372000D01*
X137991337Y-57159320D01*
X138384320Y-56766337D01*
X138597000Y-56252881D01*
X138597000Y-55697119D01*
X138384320Y-55183663D01*
X137991337Y-54790680D01*
X137477881Y-54578000D01*
X136922119Y-54578000D01*
X136890782Y-54590980D01*
X136750331Y-54450530D01*
X136707929Y-54387071D01*
X136456537Y-54219096D01*
X136234852Y-54175000D01*
X136234847Y-54175000D01*
X136160000Y-54160112D01*
X136085153Y-54175000D01*
X126323223Y-54175000D01*
X126095625Y-53834375D01*
X125797239Y-53635000D01*
X126095625Y-53435625D01*
X126283133Y-53155000D01*
X135705153Y-53155000D01*
X135780000Y-53169888D01*
X135854847Y-53155000D01*
X135854852Y-53155000D01*
X136076537Y-53110904D01*
X136327929Y-52942929D01*
X136370331Y-52879470D01*
X136890782Y-52359020D01*
X136922119Y-52372000D01*
X137477881Y-52372000D01*
X137991337Y-52159320D01*
X138384320Y-51766337D01*
X138597000Y-51252881D01*
X138597000Y-50697119D01*
X138384320Y-50183663D01*
X137991337Y-49790680D01*
X137477881Y-49578000D01*
X136922119Y-49578000D01*
X136408663Y-49790680D01*
X136015680Y-50183663D01*
X135803000Y-50697119D01*
X135803000Y-51252881D01*
X135815980Y-51284218D01*
X135465199Y-51635000D01*
X126323223Y-51635000D01*
X126095625Y-51294375D01*
X126077381Y-51282184D01*
X126122765Y-51273157D01*
X126332809Y-51132809D01*
X126473157Y-50922765D01*
X126522440Y-50675000D01*
X126522440Y-48975000D01*
X126473157Y-48727235D01*
X126334732Y-48520069D01*
X128119802Y-46735000D01*
X136002700Y-46735000D01*
X136015680Y-46766337D01*
X136408663Y-47159320D01*
X136922119Y-47372000D01*
X137477881Y-47372000D01*
X137991337Y-47159320D01*
X138384320Y-46766337D01*
X138597000Y-46252881D01*
X138597000Y-45697119D01*
X138384320Y-45183663D01*
X137991337Y-44790680D01*
X137477881Y-44578000D01*
X136922119Y-44578000D01*
X136408663Y-44790680D01*
X136015680Y-45183663D01*
X136002700Y-45215000D01*
X127879848Y-45215000D01*
X127805000Y-45200112D01*
X127730152Y-45215000D01*
X127730148Y-45215000D01*
X127556605Y-45249520D01*
X127508462Y-45259096D01*
X127321418Y-45384076D01*
X127257071Y-45427071D01*
X127214671Y-45490527D01*
X124540528Y-48164671D01*
X124477072Y-48207071D01*
X124434672Y-48270527D01*
X124434671Y-48270528D01*
X124396563Y-48327560D01*
X124175000Y-48327560D01*
X123927235Y-48376843D01*
X123910000Y-48388359D01*
X123910000Y-44110000D01*
X140565000Y-44110000D01*
X140565001Y-62840000D01*
G04 #@! TD*
M02*
