G04 #@! TF.GenerationSoftware,KiCad,Pcbnew,(5.0.2)-1*
G04 #@! TF.CreationDate,2019-06-08T19:55:36+01:00*
G04 #@! TF.ProjectId,ultrasound_adapter,756c7472-6173-46f7-956e-645f61646170,rev?*
G04 #@! TF.SameCoordinates,Original*
G04 #@! TF.FileFunction,Copper,L2,Bot*
G04 #@! TF.FilePolarity,Positive*
%FSLAX46Y46*%
G04 Gerber Fmt 4.6, Leading zero omitted, Abs format (unit mm)*
G04 Created by KiCad (PCBNEW (5.0.2)-1) date 08/06/2019 19:55:36*
%MOMM*%
%LPD*%
G01*
G04 APERTURE LIST*
G04 #@! TA.AperFunction,ComponentPad*
%ADD10O,1.700000X1.700000*%
G04 #@! TD*
G04 #@! TA.AperFunction,ComponentPad*
%ADD11R,1.700000X1.700000*%
G04 #@! TD*
G04 #@! TA.AperFunction,ComponentPad*
%ADD12C,1.524000*%
G04 #@! TD*
G04 #@! TA.AperFunction,ComponentPad*
%ADD13C,1.600000*%
G04 #@! TD*
G04 #@! TA.AperFunction,ComponentPad*
%ADD14R,1.600000X1.600000*%
G04 #@! TD*
G04 #@! TA.AperFunction,ComponentPad*
%ADD15C,3.800000*%
G04 #@! TD*
G04 #@! TA.AperFunction,Conductor*
%ADD16C,0.750000*%
G04 #@! TD*
G04 #@! TA.AperFunction,Conductor*
%ADD17C,0.254000*%
G04 #@! TD*
G04 APERTURE END LIST*
D10*
G04 #@! TO.P,J1,4*
G04 #@! TO.N,GND*
X125050000Y-49825000D03*
G04 #@! TO.P,J1,3*
G04 #@! TO.N,Echo*
X125050000Y-52365000D03*
G04 #@! TO.P,J1,2*
G04 #@! TO.N,Trig*
X125050000Y-54905000D03*
D11*
G04 #@! TO.P,J1,1*
G04 #@! TO.N,VCC*
X125050000Y-57445000D03*
G04 #@! TD*
D12*
G04 #@! TO.P,J2,1*
G04 #@! TO.N,VCC*
X137200000Y-60975000D03*
G04 #@! TO.P,J2,2*
G04 #@! TO.N,Trig*
X137200000Y-55975000D03*
G04 #@! TO.P,J2,3*
G04 #@! TO.N,Echo*
X137200000Y-50975000D03*
G04 #@! TO.P,J2,4*
G04 #@! TO.N,GND*
X137200000Y-45975000D03*
G04 #@! TD*
D13*
G04 #@! TO.P,C1,2*
G04 #@! TO.N,GND*
X134366000Y-52364000D03*
D14*
G04 #@! TO.P,C1,1*
G04 #@! TO.N,VCC*
X134366000Y-54864000D03*
G04 #@! TD*
D15*
G04 #@! TO.P,H1,1*
G04 #@! TO.N,GND*
X130048000Y-60960000D03*
G04 #@! TD*
G04 #@! TO.P,H2,1*
G04 #@! TO.N,GND*
X130048000Y-45974000D03*
G04 #@! TD*
D16*
G04 #@! TO.N,GND*
X136438001Y-46736999D02*
X137200000Y-45975000D01*
X134199999Y-48975001D02*
X136438001Y-46736999D01*
X125899999Y-48975001D02*
X134199999Y-48975001D01*
X125050000Y-49825000D02*
X125899999Y-48975001D01*
G04 #@! TO.N,VCC*
X126650000Y-57445000D02*
X126691000Y-57404000D01*
X125050000Y-57445000D02*
X126650000Y-57445000D01*
X126691000Y-57404000D02*
X131064000Y-57404000D01*
X134635000Y-60975000D02*
X137200000Y-60975000D01*
X131064000Y-57404000D02*
X134635000Y-60975000D01*
G04 #@! TO.N,Echo*
X125050000Y-52365000D02*
X131531000Y-52365000D01*
X132921000Y-50975000D02*
X137200000Y-50975000D01*
X131531000Y-52365000D02*
X132921000Y-50975000D01*
G04 #@! TO.N,Trig*
X125050000Y-54905000D02*
X131105000Y-54905000D01*
X131105000Y-54905000D02*
X133096000Y-56896000D01*
X136279000Y-56896000D02*
X137200000Y-55975000D01*
X133096000Y-56896000D02*
X136279000Y-56896000D01*
G04 #@! TD*
D17*
G04 #@! TO.N,GND*
G36*
X128424775Y-44171170D02*
X130048000Y-45794395D01*
X131671225Y-44171170D01*
X131635817Y-44110000D01*
X140565000Y-44110000D01*
X140565001Y-62840000D01*
X131626555Y-62840000D01*
X131671225Y-62762830D01*
X130048000Y-61139605D01*
X128424775Y-62762830D01*
X128469445Y-62840000D01*
X123910000Y-62840000D01*
X123910000Y-60480843D01*
X127508138Y-60480843D01*
X127518108Y-61489279D01*
X127884839Y-62374647D01*
X128245170Y-62583225D01*
X129868395Y-60960000D01*
X128245170Y-59336775D01*
X127884839Y-59545353D01*
X127508138Y-60480843D01*
X123910000Y-60480843D01*
X123910000Y-58864936D01*
X123952235Y-58893157D01*
X124200000Y-58942440D01*
X125900000Y-58942440D01*
X126147765Y-58893157D01*
X126357809Y-58752809D01*
X126498157Y-58542765D01*
X126515614Y-58455000D01*
X126550529Y-58455000D01*
X126650000Y-58474786D01*
X126749471Y-58455000D01*
X126749476Y-58455000D01*
X126955596Y-58414000D01*
X130645645Y-58414000D01*
X130735798Y-58504153D01*
X130527157Y-58420138D01*
X129518721Y-58430108D01*
X128633353Y-58796839D01*
X128424775Y-59157170D01*
X130048000Y-60780395D01*
X130062143Y-60766253D01*
X130241748Y-60945858D01*
X130227605Y-60960000D01*
X131850830Y-62583225D01*
X132211161Y-62374647D01*
X132587862Y-61439157D01*
X132577892Y-60430721D01*
X132518160Y-60286516D01*
X133850484Y-61618840D01*
X133906831Y-61703169D01*
X133991160Y-61759516D01*
X133991162Y-61759518D01*
X134166105Y-61876411D01*
X134240918Y-61926399D01*
X134535524Y-61985000D01*
X134535529Y-61985000D01*
X134635000Y-62004786D01*
X134734471Y-61985000D01*
X136234343Y-61985000D01*
X136408663Y-62159320D01*
X136922119Y-62372000D01*
X137477881Y-62372000D01*
X137991337Y-62159320D01*
X138384320Y-61766337D01*
X138597000Y-61252881D01*
X138597000Y-60697119D01*
X138384320Y-60183663D01*
X137991337Y-59790680D01*
X137477881Y-59578000D01*
X136922119Y-59578000D01*
X136408663Y-59790680D01*
X136234343Y-59965000D01*
X135053356Y-59965000D01*
X132993817Y-57905462D01*
X132996524Y-57906000D01*
X132996528Y-57906000D01*
X133095999Y-57925786D01*
X133195470Y-57906000D01*
X136179529Y-57906000D01*
X136279000Y-57925786D01*
X136378471Y-57906000D01*
X136378476Y-57906000D01*
X136673082Y-57847399D01*
X137007169Y-57624169D01*
X137063517Y-57539838D01*
X137231355Y-57372000D01*
X137477881Y-57372000D01*
X137991337Y-57159320D01*
X138384320Y-56766337D01*
X138597000Y-56252881D01*
X138597000Y-55697119D01*
X138384320Y-55183663D01*
X137991337Y-54790680D01*
X137477881Y-54578000D01*
X136922119Y-54578000D01*
X136408663Y-54790680D01*
X136015680Y-55183663D01*
X135810411Y-55679227D01*
X135813440Y-55664000D01*
X135813440Y-54064000D01*
X135764157Y-53816235D01*
X135623809Y-53606191D01*
X135413765Y-53465843D01*
X135179813Y-53419307D01*
X135194139Y-53371745D01*
X134366000Y-52543605D01*
X133537861Y-53371745D01*
X133552187Y-53419307D01*
X133318235Y-53465843D01*
X133108191Y-53606191D01*
X132967843Y-53816235D01*
X132918560Y-54064000D01*
X132918560Y-55290205D01*
X131889518Y-54261163D01*
X131833169Y-54176831D01*
X131499082Y-53953601D01*
X131204476Y-53895000D01*
X131204471Y-53895000D01*
X131105000Y-53875214D01*
X131005529Y-53895000D01*
X126161133Y-53895000D01*
X126120625Y-53834375D01*
X125822239Y-53635000D01*
X126120625Y-53435625D01*
X126161133Y-53375000D01*
X131431529Y-53375000D01*
X131531000Y-53394786D01*
X131630471Y-53375000D01*
X131630476Y-53375000D01*
X131925082Y-53316399D01*
X132259169Y-53093169D01*
X132315517Y-53008838D01*
X132930780Y-52393575D01*
X132946222Y-52717454D01*
X133112136Y-53118005D01*
X133358255Y-53192139D01*
X134186395Y-52364000D01*
X134172253Y-52349858D01*
X134351858Y-52170253D01*
X134366000Y-52184395D01*
X134380143Y-52170253D01*
X134559748Y-52349858D01*
X134545605Y-52364000D01*
X135373745Y-53192139D01*
X135619864Y-53118005D01*
X135812965Y-52580777D01*
X135785778Y-52010546D01*
X135775196Y-51985000D01*
X136234343Y-51985000D01*
X136408663Y-52159320D01*
X136922119Y-52372000D01*
X137477881Y-52372000D01*
X137991337Y-52159320D01*
X138384320Y-51766337D01*
X138597000Y-51252881D01*
X138597000Y-50697119D01*
X138384320Y-50183663D01*
X137991337Y-49790680D01*
X137477881Y-49578000D01*
X136922119Y-49578000D01*
X136408663Y-49790680D01*
X136234343Y-49965000D01*
X133020471Y-49965000D01*
X132921000Y-49945214D01*
X132821529Y-49965000D01*
X132821524Y-49965000D01*
X132526918Y-50023601D01*
X132526916Y-50023602D01*
X132526917Y-50023602D01*
X132277162Y-50190482D01*
X132277160Y-50190484D01*
X132192831Y-50246831D01*
X132136484Y-50331160D01*
X131112645Y-51355000D01*
X126161133Y-51355000D01*
X126120625Y-51294375D01*
X125801522Y-51081157D01*
X125931358Y-51020183D01*
X126321645Y-50591924D01*
X126491476Y-50181890D01*
X126370155Y-49952000D01*
X125177000Y-49952000D01*
X125177000Y-49972000D01*
X124923000Y-49972000D01*
X124923000Y-49952000D01*
X124903000Y-49952000D01*
X124903000Y-49698000D01*
X124923000Y-49698000D01*
X124923000Y-48504181D01*
X125177000Y-48504181D01*
X125177000Y-49698000D01*
X126370155Y-49698000D01*
X126491476Y-49468110D01*
X126321645Y-49058076D01*
X125931358Y-48629817D01*
X125406892Y-48383514D01*
X125177000Y-48504181D01*
X124923000Y-48504181D01*
X124693108Y-48383514D01*
X124168642Y-48629817D01*
X123910000Y-48913623D01*
X123910000Y-47776830D01*
X128424775Y-47776830D01*
X128633353Y-48137161D01*
X129568843Y-48513862D01*
X130577279Y-48503892D01*
X131462647Y-48137161D01*
X131671225Y-47776830D01*
X130048000Y-46153605D01*
X128424775Y-47776830D01*
X123910000Y-47776830D01*
X123910000Y-45494843D01*
X127508138Y-45494843D01*
X127518108Y-46503279D01*
X127884839Y-47388647D01*
X128245170Y-47597225D01*
X129868395Y-45974000D01*
X130227605Y-45974000D01*
X131850830Y-47597225D01*
X132211161Y-47388647D01*
X132385695Y-46955213D01*
X136399392Y-46955213D01*
X136468857Y-47197397D01*
X136992302Y-47384144D01*
X137547368Y-47356362D01*
X137931143Y-47197397D01*
X138000608Y-46955213D01*
X137200000Y-46154605D01*
X136399392Y-46955213D01*
X132385695Y-46955213D01*
X132587862Y-46453157D01*
X132581082Y-45767302D01*
X135790856Y-45767302D01*
X135818638Y-46322368D01*
X135977603Y-46706143D01*
X136219787Y-46775608D01*
X137020395Y-45975000D01*
X137379605Y-45975000D01*
X138180213Y-46775608D01*
X138422397Y-46706143D01*
X138609144Y-46182698D01*
X138581362Y-45627632D01*
X138422397Y-45243857D01*
X138180213Y-45174392D01*
X137379605Y-45975000D01*
X137020395Y-45975000D01*
X136219787Y-45174392D01*
X135977603Y-45243857D01*
X135790856Y-45767302D01*
X132581082Y-45767302D01*
X132577892Y-45444721D01*
X132391524Y-44994787D01*
X136399392Y-44994787D01*
X137200000Y-45795395D01*
X138000608Y-44994787D01*
X137931143Y-44752603D01*
X137407698Y-44565856D01*
X136852632Y-44593638D01*
X136468857Y-44752603D01*
X136399392Y-44994787D01*
X132391524Y-44994787D01*
X132211161Y-44559353D01*
X131850830Y-44350775D01*
X130227605Y-45974000D01*
X129868395Y-45974000D01*
X128245170Y-44350775D01*
X127884839Y-44559353D01*
X127508138Y-45494843D01*
X123910000Y-45494843D01*
X123910000Y-44110000D01*
X128460183Y-44110000D01*
X128424775Y-44171170D01*
X128424775Y-44171170D01*
G37*
X128424775Y-44171170D02*
X130048000Y-45794395D01*
X131671225Y-44171170D01*
X131635817Y-44110000D01*
X140565000Y-44110000D01*
X140565001Y-62840000D01*
X131626555Y-62840000D01*
X131671225Y-62762830D01*
X130048000Y-61139605D01*
X128424775Y-62762830D01*
X128469445Y-62840000D01*
X123910000Y-62840000D01*
X123910000Y-60480843D01*
X127508138Y-60480843D01*
X127518108Y-61489279D01*
X127884839Y-62374647D01*
X128245170Y-62583225D01*
X129868395Y-60960000D01*
X128245170Y-59336775D01*
X127884839Y-59545353D01*
X127508138Y-60480843D01*
X123910000Y-60480843D01*
X123910000Y-58864936D01*
X123952235Y-58893157D01*
X124200000Y-58942440D01*
X125900000Y-58942440D01*
X126147765Y-58893157D01*
X126357809Y-58752809D01*
X126498157Y-58542765D01*
X126515614Y-58455000D01*
X126550529Y-58455000D01*
X126650000Y-58474786D01*
X126749471Y-58455000D01*
X126749476Y-58455000D01*
X126955596Y-58414000D01*
X130645645Y-58414000D01*
X130735798Y-58504153D01*
X130527157Y-58420138D01*
X129518721Y-58430108D01*
X128633353Y-58796839D01*
X128424775Y-59157170D01*
X130048000Y-60780395D01*
X130062143Y-60766253D01*
X130241748Y-60945858D01*
X130227605Y-60960000D01*
X131850830Y-62583225D01*
X132211161Y-62374647D01*
X132587862Y-61439157D01*
X132577892Y-60430721D01*
X132518160Y-60286516D01*
X133850484Y-61618840D01*
X133906831Y-61703169D01*
X133991160Y-61759516D01*
X133991162Y-61759518D01*
X134166105Y-61876411D01*
X134240918Y-61926399D01*
X134535524Y-61985000D01*
X134535529Y-61985000D01*
X134635000Y-62004786D01*
X134734471Y-61985000D01*
X136234343Y-61985000D01*
X136408663Y-62159320D01*
X136922119Y-62372000D01*
X137477881Y-62372000D01*
X137991337Y-62159320D01*
X138384320Y-61766337D01*
X138597000Y-61252881D01*
X138597000Y-60697119D01*
X138384320Y-60183663D01*
X137991337Y-59790680D01*
X137477881Y-59578000D01*
X136922119Y-59578000D01*
X136408663Y-59790680D01*
X136234343Y-59965000D01*
X135053356Y-59965000D01*
X132993817Y-57905462D01*
X132996524Y-57906000D01*
X132996528Y-57906000D01*
X133095999Y-57925786D01*
X133195470Y-57906000D01*
X136179529Y-57906000D01*
X136279000Y-57925786D01*
X136378471Y-57906000D01*
X136378476Y-57906000D01*
X136673082Y-57847399D01*
X137007169Y-57624169D01*
X137063517Y-57539838D01*
X137231355Y-57372000D01*
X137477881Y-57372000D01*
X137991337Y-57159320D01*
X138384320Y-56766337D01*
X138597000Y-56252881D01*
X138597000Y-55697119D01*
X138384320Y-55183663D01*
X137991337Y-54790680D01*
X137477881Y-54578000D01*
X136922119Y-54578000D01*
X136408663Y-54790680D01*
X136015680Y-55183663D01*
X135810411Y-55679227D01*
X135813440Y-55664000D01*
X135813440Y-54064000D01*
X135764157Y-53816235D01*
X135623809Y-53606191D01*
X135413765Y-53465843D01*
X135179813Y-53419307D01*
X135194139Y-53371745D01*
X134366000Y-52543605D01*
X133537861Y-53371745D01*
X133552187Y-53419307D01*
X133318235Y-53465843D01*
X133108191Y-53606191D01*
X132967843Y-53816235D01*
X132918560Y-54064000D01*
X132918560Y-55290205D01*
X131889518Y-54261163D01*
X131833169Y-54176831D01*
X131499082Y-53953601D01*
X131204476Y-53895000D01*
X131204471Y-53895000D01*
X131105000Y-53875214D01*
X131005529Y-53895000D01*
X126161133Y-53895000D01*
X126120625Y-53834375D01*
X125822239Y-53635000D01*
X126120625Y-53435625D01*
X126161133Y-53375000D01*
X131431529Y-53375000D01*
X131531000Y-53394786D01*
X131630471Y-53375000D01*
X131630476Y-53375000D01*
X131925082Y-53316399D01*
X132259169Y-53093169D01*
X132315517Y-53008838D01*
X132930780Y-52393575D01*
X132946222Y-52717454D01*
X133112136Y-53118005D01*
X133358255Y-53192139D01*
X134186395Y-52364000D01*
X134172253Y-52349858D01*
X134351858Y-52170253D01*
X134366000Y-52184395D01*
X134380143Y-52170253D01*
X134559748Y-52349858D01*
X134545605Y-52364000D01*
X135373745Y-53192139D01*
X135619864Y-53118005D01*
X135812965Y-52580777D01*
X135785778Y-52010546D01*
X135775196Y-51985000D01*
X136234343Y-51985000D01*
X136408663Y-52159320D01*
X136922119Y-52372000D01*
X137477881Y-52372000D01*
X137991337Y-52159320D01*
X138384320Y-51766337D01*
X138597000Y-51252881D01*
X138597000Y-50697119D01*
X138384320Y-50183663D01*
X137991337Y-49790680D01*
X137477881Y-49578000D01*
X136922119Y-49578000D01*
X136408663Y-49790680D01*
X136234343Y-49965000D01*
X133020471Y-49965000D01*
X132921000Y-49945214D01*
X132821529Y-49965000D01*
X132821524Y-49965000D01*
X132526918Y-50023601D01*
X132526916Y-50023602D01*
X132526917Y-50023602D01*
X132277162Y-50190482D01*
X132277160Y-50190484D01*
X132192831Y-50246831D01*
X132136484Y-50331160D01*
X131112645Y-51355000D01*
X126161133Y-51355000D01*
X126120625Y-51294375D01*
X125801522Y-51081157D01*
X125931358Y-51020183D01*
X126321645Y-50591924D01*
X126491476Y-50181890D01*
X126370155Y-49952000D01*
X125177000Y-49952000D01*
X125177000Y-49972000D01*
X124923000Y-49972000D01*
X124923000Y-49952000D01*
X124903000Y-49952000D01*
X124903000Y-49698000D01*
X124923000Y-49698000D01*
X124923000Y-48504181D01*
X125177000Y-48504181D01*
X125177000Y-49698000D01*
X126370155Y-49698000D01*
X126491476Y-49468110D01*
X126321645Y-49058076D01*
X125931358Y-48629817D01*
X125406892Y-48383514D01*
X125177000Y-48504181D01*
X124923000Y-48504181D01*
X124693108Y-48383514D01*
X124168642Y-48629817D01*
X123910000Y-48913623D01*
X123910000Y-47776830D01*
X128424775Y-47776830D01*
X128633353Y-48137161D01*
X129568843Y-48513862D01*
X130577279Y-48503892D01*
X131462647Y-48137161D01*
X131671225Y-47776830D01*
X130048000Y-46153605D01*
X128424775Y-47776830D01*
X123910000Y-47776830D01*
X123910000Y-45494843D01*
X127508138Y-45494843D01*
X127518108Y-46503279D01*
X127884839Y-47388647D01*
X128245170Y-47597225D01*
X129868395Y-45974000D01*
X130227605Y-45974000D01*
X131850830Y-47597225D01*
X132211161Y-47388647D01*
X132385695Y-46955213D01*
X136399392Y-46955213D01*
X136468857Y-47197397D01*
X136992302Y-47384144D01*
X137547368Y-47356362D01*
X137931143Y-47197397D01*
X138000608Y-46955213D01*
X137200000Y-46154605D01*
X136399392Y-46955213D01*
X132385695Y-46955213D01*
X132587862Y-46453157D01*
X132581082Y-45767302D01*
X135790856Y-45767302D01*
X135818638Y-46322368D01*
X135977603Y-46706143D01*
X136219787Y-46775608D01*
X137020395Y-45975000D01*
X137379605Y-45975000D01*
X138180213Y-46775608D01*
X138422397Y-46706143D01*
X138609144Y-46182698D01*
X138581362Y-45627632D01*
X138422397Y-45243857D01*
X138180213Y-45174392D01*
X137379605Y-45975000D01*
X137020395Y-45975000D01*
X136219787Y-45174392D01*
X135977603Y-45243857D01*
X135790856Y-45767302D01*
X132581082Y-45767302D01*
X132577892Y-45444721D01*
X132391524Y-44994787D01*
X136399392Y-44994787D01*
X137200000Y-45795395D01*
X138000608Y-44994787D01*
X137931143Y-44752603D01*
X137407698Y-44565856D01*
X136852632Y-44593638D01*
X136468857Y-44752603D01*
X136399392Y-44994787D01*
X132391524Y-44994787D01*
X132211161Y-44559353D01*
X131850830Y-44350775D01*
X130227605Y-45974000D01*
X129868395Y-45974000D01*
X128245170Y-44350775D01*
X127884839Y-44559353D01*
X127508138Y-45494843D01*
X123910000Y-45494843D01*
X123910000Y-44110000D01*
X128460183Y-44110000D01*
X128424775Y-44171170D01*
G04 #@! TD*
M02*
