G04 #@! TF.GenerationSoftware,KiCad,Pcbnew,(5.0.2)-1*
G04 #@! TF.CreationDate,2019-05-29T15:32:01+01:00*
G04 #@! TF.ProjectId,ultrasound_adapter,756c7472-6173-46f7-956e-645f61646170,rev?*
G04 #@! TF.SameCoordinates,Original*
G04 #@! TF.FileFunction,Legend,Top*
G04 #@! TF.FilePolarity,Positive*
%FSLAX46Y46*%
G04 Gerber Fmt 4.6, Leading zero omitted, Abs format (unit mm)*
G04 Created by KiCad (PCBNEW (5.0.2)-1) date 29/05/2019 15:32:01*
%MOMM*%
%LPD*%
G01*
G04 APERTURE LIST*
%ADD10C,0.250000*%
%ADD11C,0.120000*%
%ADD12C,0.150000*%
G04 APERTURE END LIST*
D10*
X139000000Y-61711904D02*
X138952380Y-61807142D01*
X138952380Y-61950000D01*
X139000000Y-62092857D01*
X139095238Y-62188095D01*
X139190476Y-62235714D01*
X139380952Y-62283333D01*
X139523809Y-62283333D01*
X139714285Y-62235714D01*
X139809523Y-62188095D01*
X139904761Y-62092857D01*
X139952380Y-61950000D01*
X139952380Y-61854761D01*
X139904761Y-61711904D01*
X139857142Y-61664285D01*
X139523809Y-61664285D01*
X139523809Y-61854761D01*
X139952380Y-61235714D02*
X138952380Y-61235714D01*
X139952380Y-60664285D01*
X138952380Y-60664285D01*
X139952380Y-60188095D02*
X138952380Y-60188095D01*
X138952380Y-59950000D01*
X139000000Y-59807142D01*
X139095238Y-59711904D01*
X139190476Y-59664285D01*
X139380952Y-59616666D01*
X139523809Y-59616666D01*
X139714285Y-59664285D01*
X139809523Y-59711904D01*
X139904761Y-59807142D01*
X139952380Y-59950000D01*
X139952380Y-60188095D01*
X139278571Y-57597619D02*
X139278571Y-57264285D01*
X139802380Y-57121428D02*
X139802380Y-57597619D01*
X138802380Y-57597619D01*
X138802380Y-57121428D01*
X139754761Y-56264285D02*
X139802380Y-56359523D01*
X139802380Y-56550000D01*
X139754761Y-56645238D01*
X139707142Y-56692857D01*
X139611904Y-56740476D01*
X139326190Y-56740476D01*
X139230952Y-56692857D01*
X139183333Y-56645238D01*
X139135714Y-56550000D01*
X139135714Y-56359523D01*
X139183333Y-56264285D01*
X139802380Y-55835714D02*
X138802380Y-55835714D01*
X139802380Y-55407142D02*
X139278571Y-55407142D01*
X139183333Y-55454761D01*
X139135714Y-55550000D01*
X139135714Y-55692857D01*
X139183333Y-55788095D01*
X139230952Y-55835714D01*
X139802380Y-54788095D02*
X139754761Y-54883333D01*
X139707142Y-54930952D01*
X139611904Y-54978571D01*
X139326190Y-54978571D01*
X139230952Y-54930952D01*
X139183333Y-54883333D01*
X139135714Y-54788095D01*
X139135714Y-54645238D01*
X139183333Y-54550000D01*
X139230952Y-54502380D01*
X139326190Y-54454761D01*
X139611904Y-54454761D01*
X139707142Y-54502380D01*
X139754761Y-54550000D01*
X139802380Y-54645238D01*
X139802380Y-54788095D01*
X138802380Y-52285714D02*
X138802380Y-51714285D01*
X139802380Y-52000000D02*
X138802380Y-52000000D01*
X139802380Y-51380952D02*
X139135714Y-51380952D01*
X139326190Y-51380952D02*
X139230952Y-51333333D01*
X139183333Y-51285714D01*
X139135714Y-51190476D01*
X139135714Y-51095238D01*
X139802380Y-50761904D02*
X139135714Y-50761904D01*
X138802380Y-50761904D02*
X138850000Y-50809523D01*
X138897619Y-50761904D01*
X138850000Y-50714285D01*
X138802380Y-50761904D01*
X138897619Y-50761904D01*
X139135714Y-49857142D02*
X139945238Y-49857142D01*
X140040476Y-49904761D01*
X140088095Y-49952380D01*
X140135714Y-50047619D01*
X140135714Y-50190476D01*
X140088095Y-50285714D01*
X139754761Y-49857142D02*
X139802380Y-49952380D01*
X139802380Y-50142857D01*
X139754761Y-50238095D01*
X139707142Y-50285714D01*
X139611904Y-50333333D01*
X139326190Y-50333333D01*
X139230952Y-50285714D01*
X139183333Y-50238095D01*
X139135714Y-50142857D01*
X139135714Y-49952380D01*
X139183333Y-49857142D01*
X139077380Y-47258333D02*
X140077380Y-46925000D01*
X139077380Y-46591666D01*
X139982142Y-45686904D02*
X140029761Y-45734523D01*
X140077380Y-45877380D01*
X140077380Y-45972619D01*
X140029761Y-46115476D01*
X139934523Y-46210714D01*
X139839285Y-46258333D01*
X139648809Y-46305952D01*
X139505952Y-46305952D01*
X139315476Y-46258333D01*
X139220238Y-46210714D01*
X139125000Y-46115476D01*
X139077380Y-45972619D01*
X139077380Y-45877380D01*
X139125000Y-45734523D01*
X139172619Y-45686904D01*
X139982142Y-44686904D02*
X140029761Y-44734523D01*
X140077380Y-44877380D01*
X140077380Y-44972619D01*
X140029761Y-45115476D01*
X139934523Y-45210714D01*
X139839285Y-45258333D01*
X139648809Y-45305952D01*
X139505952Y-45305952D01*
X139315476Y-45258333D01*
X139220238Y-45210714D01*
X139125000Y-45115476D01*
X139077380Y-44972619D01*
X139077380Y-44877380D01*
X139125000Y-44734523D01*
X139172619Y-44686904D01*
D11*
G04 #@! TO.C,C1*
X133225000Y-52675000D02*
X133225000Y-53675000D01*
X134925000Y-53675000D02*
X134925000Y-52675000D01*
D12*
X136182142Y-53341666D02*
X136229761Y-53389285D01*
X136277380Y-53532142D01*
X136277380Y-53627380D01*
X136229761Y-53770238D01*
X136134523Y-53865476D01*
X136039285Y-53913095D01*
X135848809Y-53960714D01*
X135705952Y-53960714D01*
X135515476Y-53913095D01*
X135420238Y-53865476D01*
X135325000Y-53770238D01*
X135277380Y-53627380D01*
X135277380Y-53532142D01*
X135325000Y-53389285D01*
X135372619Y-53341666D01*
X136277380Y-52389285D02*
X136277380Y-52960714D01*
X136277380Y-52675000D02*
X135277380Y-52675000D01*
X135420238Y-52770238D01*
X135515476Y-52865476D01*
X135563095Y-52960714D01*
G04 #@! TO.C,J2*
X136866666Y-53427380D02*
X136866666Y-54141666D01*
X136819047Y-54284523D01*
X136723809Y-54379761D01*
X136580952Y-54427380D01*
X136485714Y-54427380D01*
X137295238Y-53522619D02*
X137342857Y-53475000D01*
X137438095Y-53427380D01*
X137676190Y-53427380D01*
X137771428Y-53475000D01*
X137819047Y-53522619D01*
X137866666Y-53617857D01*
X137866666Y-53713095D01*
X137819047Y-53855952D01*
X137247619Y-54427380D01*
X137866666Y-54427380D01*
G04 #@! TD*
M02*
